<?xml version="1.0" encoding="UTF-8" standalone="no"?>
<svg
   class="thumb"
   height="1000"
   viewBox="0,0,600,600"
   width="1500"
   version="1.1"
   id="svg11"
   sodipodi:docname="Bighil_Logo..svg"
   inkscape:version="1.4.2 (f4327f4, 2025-05-13)"
   xmlns:inkscape="http://www.inkscape.org/namespaces/inkscape"
   xmlns:sodipodi="http://sodipodi.sourceforge.net/DTD/sodipodi-0.dtd"
   xmlns="http://www.w3.org/2000/svg"
   xmlns:svg="http://www.w3.org/2000/svg">
  <sodipodi:namedview
     id="namedview11"
     pagecolor="#ffffff"
     bordercolor="#000000"
     borderopacity="0.25"
     inkscape:showpageshadow="2"
     inkscape:pageopacity="0.0"
     inkscape:pagecheckerboard="0"
     inkscape:deskcolor="#d1d1d1"
     inkscape:zoom="0.773"
     inkscape:cx="781.37128"
     inkscape:cy="414.61837"
     inkscape:window-width="1920"
     inkscape:window-height="991"
     inkscape:window-x="-9"
     inkscape:window-y="-9"
     inkscape:window-maximized="1"
     inkscape:current-layer="g9" />
  <defs
     id="defs1" />
  <g
     transform="matrix(3.3748,0,0,3.3748,-126.5894,151.8436)"
     id="g11">
    <g
       transform="matrix(0.5,0,0,0.5,49.525,14.25)"
       id="g3">
      <svg
         height="181"
         style="overflow: visible;"
         width="305.90000000000003"
         version="1.1"
         id="svg2">
        <defs
           id="defs2">
          <linearGradient
             id="linearGradientSjxy616qmg"
             x1="0"
             x2="1"
             y1="0.5"
             y2="0.5">
            <stop
               offset="0%"
               stop-color="#20bd67"
               id="stop1" />
            <stop
               offset="100%"
               stop-color="#20bd67"
               id="stop2" />
          </linearGradient>
        </defs>
        <g
           transform="matrix(1,0,0,1,0,90.75)"
           id="g2">
          <path
             d="M 59.70000000000001-36.4Q 65.70000000000002-34.5  69.1-30.05Q 72.5-25.6  72.5-19.1L 72.5-19.1Q 72.5-9.9  65.35-4.95Q 58.20000000000001 0  44.50000000000001 0L 44.50000000000001 0L 8.300000000000008 0L 8.300000000000008-70L 42.50000000000001-70Q 55.300000000000004-70  62.150000000000006-65.1Q 69-60.2  69-51.8L 69-51.8Q 69-46.7  66.55000000000001-42.7Q 64.1-38.7  59.70000000000001-36.4L 59.70000000000001-36.4ZM 40.50000000000001-57.8L 24.400000000000006-57.8L 24.400000000000006-41.3L 40.50000000000001-41.3Q 46.50000000000001-41.3  49.60000000000001-43.4Q 52.70000000000001-45.5  52.70000000000001-49.6L 52.70000000000001-49.6Q 52.70000000000001-53.7  49.60000000000001-55.75Q 46.50000000000001-57.8  40.50000000000001-57.8L 40.50000000000001-57.8ZM 43.300000000000004-12.2Q 49.70000000000001-12.2  52.95000000000001-14.3Q 56.20000000000001-16.4  56.20000000000001-20.8L 56.20000000000001-20.8Q 56.20000000000001-29.5  43.300000000000004-29.5L 43.300000000000004-29.5L 24.400000000000006-29.5L 24.400000000000006-12.2L 43.300000000000004-12.2ZM 83.7 0L 83.7-53.8L 99.3-53.8L 99.3 0L 83.7 0ZM 91.5-61.3Q 87.2-61.3  84.5-63.8Q 81.8-66.3  81.8-70L 81.8-70Q 81.8-73.7  84.5-76.2Q 87.2-78.7  91.5-78.7L 91.5-78.7Q 95.8-78.7  98.5-76.3Q 101.2-73.9  101.2-70.3L 101.2-70.3Q 101.2-66.4  98.5-63.85Q 95.8-61.3  91.5-61.3L 91.5-61.3ZM 154.5-53.8L 169.3-53.8L 169.3-9Q 169.3 5.8  161.6 13Q 153.89999999999998 20.2  139.1 20.2L 139.1 20.2Q 131.29999999999998 20.2  124.3 18.3Q 117.3 16.4  112.69999999999999 12.8L 112.69999999999999 12.8L 118.89999999999999 1.6Q 122.3 4.4  127.5 6.05Q 132.7 7.7  137.9 7.7L 137.9 7.7Q 146 7.7  149.85 4.05Q 153.7 0.4  153.7-7L 153.7-7L 153.7-9.3Q 147.6-2.6  136.7-2.6L 136.7-2.6Q 129.29999999999998-2.6  123.14999999999999-5.85Q 117-9.1  113.39999999999999-15Q 109.8-20.9  109.8-28.6L 109.8-28.6Q 109.8-36.3  113.39999999999999-42.2Q 117-48.1  123.14999999999999-51.35Q 129.29999999999998-54.6  136.7-54.6L 136.7-54.6Q 148.39999999999998-54.6  154.5-46.9L 154.5-46.9L 154.5-53.8ZM 139.8-15.4Q 146-15.4  149.95-19.05Q 153.89999999999998-22.7  153.89999999999998-28.6L 153.89999999999998-28.6Q 153.89999999999998-34.5  149.95-38.15Q 146-41.8  139.8-41.8L 139.8-41.8Q 133.6-41.8  129.6-38.15Q 125.6-34.5  125.6-28.6L 125.6-28.6Q 125.6-22.7  129.6-19.05Q 133.6-15.4  139.8-15.4L 139.8-15.4ZM 216.5-54.6Q 226.5-54.6  232.64999999999998-48.6Q 238.8-42.6  238.8-30.8L 238.8-30.8L 238.8 0L 223.2 0L 223.2-28.4Q 223.2-34.8  220.39999999999998-37.95Q 217.6-41.1  212.3-41.1L 212.3-41.1Q 206.4-41.1  202.9-37.45Q 199.4-33.8  199.4-26.6L 199.4-26.6L 199.4 0L 183.79999999999998 0L 183.79999999999998-74.2L 199.4-74.2L 199.4-48.2Q 202.5-51.3  206.9-52.95Q 211.3-54.6  216.5-54.6L 216.5-54.6ZM 252.89999999999998 0L 252.89999999999998-53.8L 268.5-53.8L 268.5 0L 252.89999999999998 0ZM 260.7-61.3Q 256.4-61.3  253.7-63.8Q 251-66.3  251-70L 251-70Q 251-73.7  253.7-76.2Q 256.4-78.7  260.7-78.7L 260.7-78.7Q 265-78.7  267.7-76.3Q 270.4-73.9  270.4-70.3L 270.4-70.3Q 270.4-66.4  267.7-63.85Q 265-61.3  260.7-61.3L 260.7-61.3ZM 283 0L 283-74.2L 298.6-74.2L 298.6 0L 283 0Z"
             data-dx="0"
             data-dy="0"
             data-font="Montserrat"
             data-font-scale="contain"
             data-font-size="100"
             data-font-src="/Content/clientfonts/montserrat-bold.woff"
             data-href=""
             data-letterspacing="0"
             data-offset="0.5"
             data-side="left"
             data-text-anchor="middle"
             data-textpath="Bighil"
             data-x="0"
             data-xmlspace="preserve"
             data-y="0"
             fill="#00a650"
             stroke="#00a650"
             stroke-width="3.0"
             id="path2"
             transform="translate(0,0)" />
        </g>
      </svg>
    </g>
    <g
       transform="matrix(0.5976,0,0,0.5976,98.997,0.1686)"
       id="g5">
      <svg
         height="58"
         viewBox="9,21,82.00000000000001,58"
         width="82.00000000000001"
         version="1.1"
         id="svg4">
        <defs
           id="defs4">
          <linearGradient
             id="linearGradientSjxy616qm8"
             x1="0.17"
             x2="0.83"
             y1="0.87"
             y2="0.13">
            <stop
               offset="0%"
               stop-color="#2de37f"
               id="stop3" />
            <stop
               offset="100%"
               stop-color="#20bd67"
               id="stop4" />
          </linearGradient>
        </defs>
        <g
           id="g4">
          <path
             d="M50.6,26c-0.42,0-0.779,0.36-0.779,0.78v7.44c0,1.08,1.619,1.08,1.619,0v-7.44   C51.439,26.36,51.08,26,50.6,26L50.6,26z M39.26,27.08c-0.72,0-1.08,0.9-0.54,1.38L44,33.68c0.72,0.78,1.86-0.36,1.08-1.08   l-5.22-5.28C39.68,27.2,39.5,27.08,39.26,27.08L39.26,27.08z M62,27.08c-0.24,0-0.42,0.12-0.601,0.24l-5.22,5.28   c-0.78,0.72,0.36,1.86,1.14,1.08l5.221-5.22C63.08,27.92,62.72,27.08,62,27.08L62,27.08z M33.02,36.14   C22.52,36.14,14,44.66,14,55.1C14,65.54,22.52,74,33.02,74c9.721,0,17.82-7.38,18.78-16.98l31.5-3.899c1.5-0.181,2.7-1.5,2.7-3.06   v-2.64v-6.24v-2.22c0-1.56-1.261-2.82-2.82-2.82h-24.9c-0.359,0-0.72,0.3-0.779,0.66L57.199,38c-0.119,0.72-1.02,1.38-1.739,1.38   h-1.681h-6.3H45.8c-0.72,0-1.56-0.66-1.74-1.38l-0.3-1.2c-0.06-0.36-0.359-0.66-0.78-0.66H33.02L33.02,36.14L33.02,36.14z    M33.02,37.76h9.36l0.12,0.6c0.36,1.5,1.74,2.64,3.3,2.64h1.68h6.3h1.681c1.56,0,2.939-1.14,3.3-2.64l0.18-0.6h24.24   c0.72,0,1.2,0.54,1.2,1.2v2.22v6.24v2.64c0,0.72-0.601,1.379-1.26,1.5L51.02,55.52c-0.359,0.061-0.659,0.36-0.659,0.721   C49.7,65.36,42.14,72.38,33.02,72.38c-9.659,0-17.399-7.74-17.399-17.28C15.62,45.5,23.36,37.76,33.02,37.76L33.02,37.76z    M33.02,43.58c-6.42,0-11.579,5.16-11.579,11.52c0,6.301,5.159,11.46,11.579,11.46c6.36,0,11.521-5.159,11.521-11.46   C44.54,48.74,39.38,43.58,33.02,43.58L33.02,43.58z M33.02,45.2c5.46,0,9.96,4.38,9.96,9.9c0,5.46-4.5,9.9-9.96,9.9   c-5.52,0-9.96-4.44-9.96-9.9C23.06,49.58,27.5,45.2,33.02,45.2L33.02,45.2z"
             fill="#00a650"
             stroke="#00a650"
             stroke-width="3.0"
             id="path4"
             style="" />
        </g>
      </svg>
    </g>
    <g
       transform="matrix(0.1371,0,0,0.1371,74.1349,70.9898)"
       id="g10"
       style="stroke-width:5.83550263;stroke-dasharray:none">
      <svg
         height="192"
         style="overflow:visible;stroke-width:14.13488414;stroke-dasharray:none"
         width="760.5000000000001"
         version="1.1"
         id="svg9">
        <defs
           id="defs9">
          <linearGradient
             id="linearGradientSjxy616qmj"
             x1="0"
             x2="1"
             y1="0.5"
             y2="0.5">
            <stop
               offset="49.29%"
               stop-color="#12c462"
               id="stop5" />
            <stop
               offset="50%"
               stop-color="#000000"
               id="stop6" />
            <stop
               offset="50.95%"
               stop-color="#23de77"
               id="stop7" />
            <stop
               offset="99.53%"
               stop-color="#12c462"
               id="stop8" />
            <stop
               offset="100%"
               stop-color="#000000"
               id="stop9" />
          </linearGradient>
        </defs>
        <g
           transform="matrix(1,0,0,1,0,99)"
           id="g9"
           style="stroke-width:11.28197175;stroke-dasharray:none">
          <path
             d="m -202.3,0 v -73.6 h 26.6 c 12.66667,0 19,6.3 19,18.9 v 0 c 0,4.4 -0.98333,8.033333 -2.95,10.9 -1.96667,2.866667 -4.45,4.733333 -7.45,5.6 v 0 c 3.33333,0.733333 6.33333,2.566667 9,5.5 2.66667,2.933333 4,7.033333 4,12.3 v 0 c 0,7.466667 -1.73333,12.7333333 -5.2,15.8 -3.46667,3.0666667 -8.6,4.6 -15.4,4.6 v 0 z m 8,-41 h 19.1 c 3.26667,0 5.9,-1.216667 7.9,-3.65 2,-2.433333 3,-5.683333 3,-9.75 v 0 c 0,-8 -3.8,-12 -11.4,-12 v 0 h -18.6 z m 0,33.9 h 19.4 c 4.26667,0 7.53333,-1.0666667 9.8,-3.2 2.26667,-2.133333 3.4,-5.933333 3.4,-11.4 v 0 c 0,-4 -1.25,-7.166667 -3.75,-9.5 -2.5,-2.333333 -5.65,-3.5 -9.45,-3.5 v 0 h -19.4 z m 94.2,7.2 c -4.73333,0 -8.25,-1.3 -10.55,-3.9 -2.3,-2.6 -3.45,-7.033333 -3.45,-13.3 v 0 -59.2 h 7.9 v 58.2 c 0,4.4 0.6,7.4 1.8,9 1.2,1.6 3.1,2.5666667 5.7,2.9 v 0 l 5.4,0.6 v 5.7 z m 64.6,0.5 c -5.466667,0 -9.866667,-0.76666667 -13.2,-2.3 -3.333333,-1.5333333 -5.816667,-4.2833333 -7.45,-8.25 -1.633333,-3.966667 -2.45,-9.583333 -2.45,-16.85 v 0 c 0,-7.333333 0.833333,-12.983333 2.5,-16.95 1.666667,-3.966667 4.133333,-6.683333 7.4,-8.15 3.266667,-1.466667 7.666667,-2.2 13.2,-2.2 v 0 c 5.466667,0 9.866667,0.75 13.2,2.25 3.333333,1.5 5.833333,4.233333 7.5,8.2 1.666667,3.966667 2.5,9.583333 2.5,16.85 v 0 c 0,7.266667 -0.833333,12.883333 -2.5,16.85 -1.666667,3.9666667 -4.15,6.7166667 -7.45,8.25 -3.3,1.53333333 -7.716667,2.3 -13.25,2.3 z m 0,-6.5 c 3.666667,0 6.55,-0.4833333 8.65,-1.45 2.1,-0.9666667 3.716667,-2.95 4.85,-5.95 1.133333,-3 1.7,-7.5 1.7,-13.5 v 0 c 0,-6 -0.55,-10.483333 -1.65,-13.45 -1.1,-2.966667 -2.716667,-4.933333 -4.85,-5.9 -2.133333,-0.966667 -5.033333,-1.45 -8.7,-1.45 v 0 c -3.733333,0 -6.65,0.483333 -8.75,1.45 -2.1,0.966667 -3.7,2.933333 -4.8,5.9 -1.1,2.966667 -1.65,7.45 -1.65,13.45 v 0 c 0,6 0.55,10.5 1.65,13.5 1.1,3 2.7,4.9833333 4.8,5.95 2.1,0.9666667 5.016667,1.45 8.75,1.45 z M 37.5,0 21.3,-53.4 h 8.1 L 41.784043,-17.30056 56,-53.4 h 6.9 L 75.734924,-16.461764 89.1,-53.4 h 8.1 L 81.1,0 H 72.4 L 58.359441,-35.191226 46.1,0 Z m 169.9,0 c -5.26667,0 -9.13333,-1.35 -11.6,-4.05 -2.46667,-2.7 -3.63333,-7.116667 -3.5,-13.25 v 0 l 0.3,-29.6 h -8.5 V -52 l 8.6,-1.4 1.3,-14.9 h 6.1 v 14.9 h 15.4 v 6.5 h -15.4 v 29.6 c 0,4.066667 0.76667,6.85 2.3,8.35 1.53333,1.5 3.46667,2.35 5.8,2.55 v 0 l 6.5,0.6 V 0 Z m 47,0 v -76.3 h 7.9 v 28.8 c 2.73333,-1.933333 5.81667,-3.55 9.25,-4.85 3.43333,-1.3 6.88333,-1.95 10.35,-1.95 v 0 c 5.4,0 9.48333,1.666667 12.25,5 2.76667,3.333333 4.15,7.633333 4.15,12.9 v 0 V 0 h -7.9 v -35.5 c 0,-3.4 -1,-6.183333 -3,-8.35 -2,-2.166667 -4.7,-3.25 -8.1,-3.25 v 0 c -3.2,0 -6.05,0.416667 -8.55,1.25 -2.5,0.833333 -5.31667,2.15 -8.45,3.95 v 0 V 0 Z m 107.2,0.6 c -5.73333,0 -10.18333,-0.83333333 -13.35,-2.5 -3.16667,-1.6666667 -5.45,-4.4666667 -6.85,-8.4 -1.4,-3.933333 -2.1,-9.433333 -2.1,-16.5 v 0 c 0,-7.133333 0.71667,-12.666667 2.15,-16.6 1.43333,-3.933333 3.75,-6.7 6.95,-8.3 3.2,-1.6 7.63333,-2.4 13.3,-2.4 v 0 c 4.86667,0 8.76667,0.533333 11.7,1.6 2.93333,1.066667 5.1,2.883333 6.5,5.45 1.4,2.566667 2.1,6.116667 2.1,10.65 v 0 c 0,4.533333 -1.31667,7.816667 -3.95,9.85 -2.63333,2.033333 -6.38333,3.05 -11.25,3.05 v 0 h -19.6 c 0.0667,4.6 0.53333,8.15 1.4,10.65 0.86667,2.5 2.46667,4.3333333 4.8,5.5 2.33333,1.1666667 5.7,1.75 10.1,1.75 v 0 h 17.2 v 4.8 c -3.6,0.46666667 -6.8,0.81666667 -9.6,1.05 -2.8,0.23333333 -5.96667,0.35 -9.5,0.35 z m -14.5,-29.3 h 19 c 3.06667,0 5.3,-0.566667 6.7,-1.7 1.4,-1.133333 2.1,-3.1 2.1,-5.9 v 0 c 0,-4.466667 -0.98333,-7.55 -2.95,-9.25 -1.96667,-1.7 -5.38333,-2.55 -10.25,-2.55 v 0 c -3.86667,0 -6.83333,0.566667 -8.9,1.7 -2.06667,1.133333 -3.53333,3.066667 -4.4,5.8 -0.86667,2.733333 -1.3,6.7 -1.3,11.9 z M 488.8,0 472.6,-53.4 h 8.1 L 493.67716,-15.644044 507.3,-53.4 h 6.9 L 527.40344,-15.173765 540.4,-53.4 h 8.1 L 532.4,0 h -8.7 L 510.6,-36.509031 497.4,0 Z M 586,0 v -76.3 h 7.9 v 28.8 c 2.73333,-1.933333 5.81667,-3.55 9.25,-4.85 3.43333,-1.3 6.88333,-1.95 10.35,-1.95 v 0 c 5.4,0 9.48333,1.666667 12.25,5 2.76667,3.333333 4.15,7.633333 4.15,12.9 v 0 V 0 H 622 v -35.5 c 0,-3.4 -1,-6.183333 -3,-8.35 -2,-2.166667 -4.7,-3.25 -8.1,-3.25 v 0 c -3.2,0 -6.05,0.416667 -8.55,1.25 -2.5,0.833333 -5.31667,2.15 -8.45,3.95 v 0 V 0 Z m 88,-62.9 c -0.46667,0 -0.85,-0.15 -1.15,-0.45 -0.3,-0.3 -0.45,-0.683333 -0.45,-1.15 v 0 -7.8 c 0,-1.066667 0.53333,-1.6 1.6,-1.6 v 0 h 5.6 c 1,0 1.5,0.533333 1.5,1.6 v 0 7.8 c 0,1.066667 -0.5,1.6 -1.5,1.6 v 0 z M 672.8,0 v -53.4 c 3.05273,51.470899 5.68607,31.064678 7.9,0 V 0 Z m 69.5,0.6 c -3,0 -6.76667,-0.13333333 -11.3,-0.4 -4.53333,-0.26666667 -7.63333,-0.6 -9.3,-1 v 0 -4.8 h 21.9 c 3.73333,0 6.46667,-0.5 8.2,-1.5 1.73333,-1 2.6,-3.1 2.6,-6.3 v 0 -2.4 c 0,-5 -3.23333,-7.5 -9.7,-7.5 v 0 h -7.5 c -5.13333,0 -9.08333,-1 -11.85,-3 -2.76667,-2 -4.15,-5.4 -4.15,-10.2 v 0 -2.8 c 0,-5.066667 1.48333,-8.766667 4.45,-11.1 2.96667,-2.333333 7.75,-3.5 14.35,-3.5 v 0 c 2.86667,0 6.25,0.15 10.15,0.45 3.9,0.3 6.95,0.65 9.15,1.05 v 0 4.8 h -20.6 c -3.6,0 -6.26667,0.6 -8,1.8 -1.73333,1.2 -2.6,3.366667 -2.6,6.5 v 0 2.2 c 0,2.866667 0.85,4.783333 2.55,5.75 1.7,0.966667 4.31667,1.45 7.85,1.45 v 0 h 7.6 c 4.86667,0 8.63333,1.133333 11.3,3.4 2.66667,2.266667 4,5.533333 4,9.8 v 0 3.7 c 0,5.0666667 -1.63333,8.6 -4.9,10.6 -3.26667,2 -8,3 -14.2,3 z M 819.6,0 c -5.26667,0 -9.13333,-1.35 -11.6,-4.05 -2.46667,-2.7 -3.63333,-7.116667 -3.5,-13.25 v 0 l 0.3,-29.6 h -8.5 V -52 l 8.6,-1.4 1.3,-14.9 h 6.1 v 14.9 h 15.4 v 6.5 h -15.4 v 29.6 c 0,4.066667 0.76667,6.85 2.3,8.35 1.53333,1.5 3.46667,2.35 5.8,2.55 v 0 l 6.5,0.6 V 0 Z m 61,0.1 c -4.73333,0 -8.25,-1.3 -10.55,-3.9 -2.3,-2.6 -3.45,-7.033333 -3.45,-13.3 v 0 -59.2 h 7.9 v 58.2 c 0,4.4 0.6,7.4 1.8,9 1.2,1.6 3.1,2.5666667 5.7,2.9 v 0 l 5.4,0.6 v 5.7 z m 63.8,0.5 c -5.73333,0 -10.18333,-0.83333333 -13.35,-2.5 -3.16667,-1.6666667 -5.45,-4.4666667 -6.85,-8.4 -1.4,-3.933333 -2.1,-9.433333 -2.1,-16.5 v 0 c 0,-7.133333 0.71667,-12.666667 2.15,-16.6 1.43333,-3.933333 3.75,-6.7 6.95,-8.3 3.2,-1.6 7.63333,-2.4 13.3,-2.4 v 0 c 4.86667,0 8.76667,0.533333 11.7,1.6 2.93333,1.066667 5.1,2.883333 6.5,5.45 1.4,2.566667 2.1,6.116667 2.1,10.65 v 0 c 0,4.533333 -1.31667,7.816667 -3.95,9.85 -2.63333,2.033333 -6.38333,3.05 -11.25,3.05 v 0 H 930 c 0.0667,4.6 0.53333,8.15 1.4,10.65 0.86667,2.5 2.46667,4.3333333 4.8,5.5 2.33333,1.1666667 5.7,1.75 10.1,1.75 v 0 h 17.2 v 4.8 c -3.6,0.46666667 -6.8,0.81666667 -9.6,1.05 -2.8,0.23333333 -5.96667,0.35 -9.5,0.35 z m -14.5,-29.3 h 19 c 3.06667,0 5.3,-0.566667 6.7,-1.7 1.4,-1.133333 2.1,-3.1 2.1,-5.9 v 0 c 0,-4.466667 -0.98333,-7.55 -2.95,-9.25 -1.96667,-1.7 -5.38333,-2.55 -10.25,-2.55 v 0 c -3.86667,0 -6.83333,0.566667 -8.9,1.7 -2.06667,1.133333 -3.53333,3.066667 -4.4,5.8 -0.86667,2.733333 -1.3,6.7 -1.3,11.9 z"
             data-dx="0"
             data-dy="0"
             data-font="Exo"
             data-font-scale="contain"
             data-font-size="100"
             data-font-src="/Content/clientfonts/exo.woff"
             data-href=""
             data-letterspacing="28"
             data-offset="0.5"
             data-side="left"
             data-text-anchor="middle"
             data-textpath="Blow the whistle"
             data-x="0"
             data-xmlspace="preserve"
             data-y="0"
             fill="#00a650"
             stroke="#00a650"
             stroke-width="3.0"
             id="path9"
             style="stroke-width:15.5613;stroke-dasharray:none"
             sodipodi:nodetypes="ccssssssssssscccsssssccccsssssscccssscccssscccsssssssssssssssssssssssssssssssssccccccccccccccssscccccccccccssscccsccccssssscccsssssscccsssssssssssssssccssscccsscssssssssscccccccccccccccccccssssscccsssssscccssscsscsscsscscccccsssccssscsscssscssssssccssscssscssscsssssscccccccccccssscccsssscccssscccssssssssssssssssccssscccsscsssssssssc" />
        </g>
      </svg>
    </g>
  </g>
</svg>
