<svg version="1.1" id="Layer_1" xmlns="http://www.w3.org/2000/svg" xmlns:xlink="http://www.w3.org/1999/xlink" x="0px" y="0px"
	 width="100%" viewBox="0 0 2778 1434" enable-background="new 0 0 2778 1434" xml:space="preserve">
<path fill="#FFFFFF" opacity="1.000000" stroke="none" 
	d="
M2074.000000,1435.000000 
	C1382.666626,1435.000000 691.833313,1435.000000 1.000000,1435.000000 
	C1.000000,957.000000 1.000000,479.000000 1.000000,1.000000 
	C927.000000,1.000000 1853.000000,1.000000 2779.000000,1.000000 
	C2779.000000,479.000000 2779.000000,957.000000 2779.000000,1435.000000 
	C2544.166748,1435.000000 2309.333252,1435.000000 2074.000000,1435.000000 
M1385.835693,1323.936279 
	C1391.577515,1322.668091 1387.912476,1318.145752 1388.649414,1315.184204 
	C1388.735596,1314.837769 1386.271362,1313.856812 1384.060547,1313.049194 
	C1371.233032,1313.026123 1358.394897,1313.313721 1345.581543,1312.876465 
	C1336.257568,1312.558350 1327.050781,1310.706177 1321.886719,1301.651611 
	C1317.223267,1293.474976 1317.170288,1284.302734 1316.977783,1274.869629 
	C1331.591797,1274.869629 1345.558716,1275.109985 1359.509888,1274.745239 
	C1364.710327,1274.609253 1369.873901,1273.059692 1375.792114,1272.141602 
	C1378.904663,1270.102661 1382.017212,1268.063721 1385.765137,1265.798584 
	C1393.702393,1255.145752 1393.408569,1233.678833 1384.944946,1221.262329 
	C1381.647583,1218.800293 1378.350342,1216.338257 1374.604980,1213.312744 
	C1360.755737,1208.364014 1346.550293,1208.370483 1332.249512,1210.468018 
	C1315.837891,1212.874756 1306.107666,1222.435059 1302.805542,1238.620850 
	C1298.727905,1258.607422 1298.683105,1278.635742 1303.148438,1298.514160 
	C1306.554688,1313.677124 1316.057495,1323.685913 1331.782715,1324.893188 
	C1346.108643,1325.993042 1360.598999,1324.948486 1375.866577,1324.980103 
	C1378.920166,1324.601318 1381.973755,1324.222534 1385.835693,1323.936279 
M1439.748169,333.076782 
	C1440.495483,332.976074 1441.242798,332.875336 1442.531860,332.866455 
	C1443.054443,332.739288 1443.577026,332.612091 1445.008301,332.482117 
	C1465.993164,329.935944 1486.982056,327.422455 1507.962036,324.837036 
	C1556.704590,318.830292 1605.444580,312.802032 1654.181030,306.745514 
	C1660.573853,305.951050 1666.479370,303.940826 1671.634277,298.728058 
	C1674.407349,293.160034 1677.180420,287.591980 1680.146240,281.571259 
	C1680.146240,281.571259 1680.104248,281.081055 1680.461426,280.571869 
	C1680.500366,279.742981 1680.539429,278.914062 1680.889404,277.181976 
	C1680.786255,260.095520 1680.683105,243.009079 1680.653076,225.213287 
	C1680.628174,224.504089 1680.603149,223.794876 1680.888306,222.230209 
	C1680.785278,220.127350 1680.682251,218.024475 1680.652710,215.213028 
	C1680.627563,214.504578 1680.602417,213.796127 1680.888184,212.262970 
	C1680.784912,210.815063 1680.681519,209.367157 1680.652100,207.218506 
	C1680.625366,206.518082 1680.598511,205.817673 1680.804321,204.499863 
	C1680.726685,204.294098 1680.649048,204.088318 1680.653809,203.191666 
	C1680.626465,202.500198 1680.598999,201.808716 1680.804199,200.499832 
	C1680.726562,200.294067 1680.648926,200.088318 1680.661499,199.090591 
	C1680.631592,197.766144 1680.601685,196.441681 1680.804199,194.499863 
	C1680.726685,194.294128 1680.649048,194.088379 1680.666016,193.040161 
	C1680.634521,191.065826 1680.603149,189.091476 1680.804321,186.499863 
	C1680.726807,186.294128 1680.649170,186.088409 1680.671753,184.973740 
	C1680.680542,182.976700 1680.579712,180.972183 1680.715210,178.983780 
	C1682.114624,158.440582 1667.456299,147.604965 1649.907349,147.731766 
	C1575.614258,148.268616 1501.315063,147.964859 1427.018188,147.968918 
	C1425.518921,147.968994 1424.019531,147.959900 1422.520508,147.983368 
	C1418.313843,148.049210 1415.620605,150.144302 1414.552246,154.181137 
	C1413.873535,156.745117 1413.409912,159.366013 1412.369019,162.498154 
	C1409.854126,173.336594 1403.819458,178.101227 1392.577271,178.103622 
	C1364.127441,178.109680 1335.677734,178.115875 1307.227905,178.108902 
	C1297.707642,178.106552 1291.287354,173.177597 1288.731445,163.912811 
	C1288.025146,161.352798 1287.437378,158.760284 1286.782227,156.185959 
	C1285.005615,149.205856 1283.401978,147.965012 1275.993408,147.963028 
	C1246.045410,147.955002 1216.093262,147.674591 1186.151611,148.111160 
	C1175.079224,148.272598 1164.031860,150.132706 1152.337402,151.142075 
	C1151.551880,151.410095 1150.766235,151.678116 1149.210571,151.893616 
	C1147.475342,152.307007 1145.740234,152.720383 1143.220825,153.093292 
	C1108.769531,161.839645 1079.402588,179.205750 1055.278687,205.295364 
	C1041.516724,220.178680 1030.297119,236.765106 1022.298157,256.214386 
	C1006.682373,293.772339 1003.794067,332.293365 1014.653687,371.487305 
	C1039.483765,461.101959 1128.657593,516.023193 1220.177124,498.019470 
	C1262.255981,489.741760 1296.806396,468.589813 1324.124390,434.505188 
	C1345.402100,407.786041 1357.454590,377.273560 1361.425415,342.966644 
	C1374.638428,341.309845 1387.802856,339.691711 1400.957764,338.000336 
	C1413.642212,336.369476 1426.316895,334.662903 1439.748169,333.076782 
M2630.669922,1268.887085 
	C2643.198975,1258.222290 2643.417725,1231.793091 2630.809326,1218.325195 
	C2625.947266,1215.927734 2621.317139,1212.581299 2616.176270,1211.323242 
	C2604.111084,1208.370728 2591.821777,1208.646484 2579.513916,1210.706665 
	C2563.306641,1213.419556 2554.271484,1223.291870 2551.112793,1238.796021 
	C2547.183350,1258.083130 2547.137207,1277.507935 2551.119629,1296.801758 
	C2554.605469,1313.689697 2563.510498,1322.979858 2580.427490,1324.920288 
	C2593.218018,1326.387573 2606.293457,1325.615356 2619.235352,1325.413086 
	C2625.134521,1325.320923 2631.017578,1324.199341 2636.706543,1323.567139 
	C2636.706543,1319.720947 2636.706543,1316.484375 2636.706543,1313.039429 
	C2635.194092,1313.039429 2634.045898,1313.040527 2632.897705,1313.039062 
	C2619.912598,1313.022583 2606.921631,1313.239746 2593.943604,1312.927979 
	C2578.619385,1312.559814 2569.887451,1306.273926 2567.290771,1293.772827 
	C2566.050049,1287.799805 2565.735107,1281.634644 2564.916748,1274.859863 
	C2567.477783,1274.859863 2569.434082,1274.860107 2571.390625,1274.859863 
	C2584.198975,1274.857788 2597.010986,1275.029907 2609.814697,1274.785156 
	C2616.966064,1274.648438 2624.067383,1273.691284 2630.669922,1268.887085 
M646.158386,921.734741 
	C656.388611,917.776672 666.915833,914.442810 676.793518,909.743652 
	C706.559082,895.582947 730.272034,874.908875 743.825745,844.135864 
	C754.503418,819.892700 756.728638,794.397888 754.120117,768.309082 
	C749.836975,725.471619 729.854797,691.997253 693.408447,669.041260 
	C681.885193,661.783264 669.065735,656.583313 656.866333,650.455017 
	C657.754028,649.908813 659.230225,648.937927 660.762878,648.066284 
	C730.226929,608.563599 741.082520,526.941223 715.131104,473.856567 
	C700.066772,443.041840 674.484192,423.384430 643.722107,409.956360 
	C609.921753,395.202087 574.080078,389.434296 537.590759,389.182526 
	C444.278717,388.538696 350.960205,388.831909 257.644287,388.769684 
	C256.377319,388.768829 255.110184,389.019958 253.998322,389.137115 
	C253.998322,571.419983 253.998322,753.298706 253.998322,935.367493 
	C255.350357,935.465759 256.327240,935.600220 257.303925,935.598572 
	C357.286743,935.432312 457.270569,935.458496 557.251770,934.956116 
	C587.142395,934.805847 616.609985,930.383362 646.158386,921.734741 
M1511.191406,836.500000 
	C1511.191406,729.552368 1511.191406,622.604797 1511.191406,515.474487 
	C1472.466309,515.474487 1434.286865,515.474487 1395.653809,515.474487 
	C1395.653809,533.033997 1395.653809,550.267090 1395.653809,568.614258 
	C1393.820923,566.635742 1392.714355,565.512817 1391.686890,564.321472 
	C1374.591309,544.499146 1353.888428,529.787476 1329.214966,520.986816 
	C1287.701294,506.179565 1245.251831,505.101624 1202.785034,515.182861 
	C1140.905884,529.872253 1093.944214,564.682983 1065.749634,622.499451 
	C1046.851318,661.252930 1042.652222,702.558044 1048.914185,744.787170 
	C1059.195801,814.122742 1096.958374,863.763367 1159.701050,894.186401 
	C1201.879761,914.638245 1246.722534,919.111816 1292.734009,912.604004 
	C1324.192993,908.154602 1352.676880,896.395691 1376.826782,875.230713 
	C1380.875854,871.682068 1384.716797,867.895935 1388.964844,863.929260 
	C1388.964844,874.873352 1389.461060,885.188843 1388.854736,895.439026 
	C1387.804810,913.190247 1383.985352,930.347229 1375.394409,946.158386 
	C1361.589966,971.564880 1339.114990,984.761169 1311.820679,990.977234 
	C1287.190308,996.586670 1262.294922,996.854553 1237.303955,994.029968 
	C1205.611572,990.447937 1175.287720,982.039368 1146.998901,967.185608 
	C1136.740112,961.798889 1127.155151,955.128967 1117.066162,948.923767 
	C1101.269897,977.490234 1085.275024,1006.415833 1069.156250,1035.565552 
	C1083.101562,1046.418457 1097.808716,1055.126831 1113.531494,1062.073608 
	C1161.946655,1083.464722 1213.013184,1092.051880 1265.581055,1093.161743 
	C1303.745605,1093.967529 1341.446167,1090.852783 1378.004272,1078.981567 
	C1413.296997,1067.521118 1443.956909,1048.970215 1467.262451,1019.530090 
	C1493.151489,986.826050 1504.981079,948.615601 1508.751709,907.871277 
	C1510.911011,884.538757 1510.464722,860.965088 1511.191406,836.500000 
M1624.606323,577.499939 
	C1624.606323,696.732300 1624.606323,815.964722 1624.606323,935.350830 
	C1665.522705,935.350830 1705.622925,935.350830 1746.307373,935.350830 
	C1746.307373,933.147461 1746.307373,931.197693 1746.307373,929.247925 
	C1746.307373,862.418945 1746.122192,795.589050 1746.471924,728.761902 
	C1746.537720,716.182434 1747.772095,703.429382 1750.139648,691.076965 
	C1756.073242,660.119629 1772.447266,636.432800 1801.848389,623.314819 
	C1822.319580,614.181152 1843.956665,612.626282 1865.942749,616.001526 
	C1892.400513,620.063049 1911.854858,633.795654 1922.734741,658.609802 
	C1929.378784,673.763306 1932.057617,689.846619 1932.087402,706.297791 
	C1932.221802,780.624084 1932.204102,854.950623 1932.241089,929.277100 
	C1932.242065,931.211121 1932.241089,933.145081 1932.241089,935.336914 
	C1973.150146,935.336914 2013.396484,935.336914 2054.099854,935.336914 
	C2054.099854,933.603760 2054.100098,932.141418 2054.100098,930.679016 
	C2054.102539,855.686584 2054.003906,780.693970 2054.165283,705.701904 
	C2054.217041,681.664978 2053.416260,657.767639 2047.970947,634.229126 
	C2034.668945,576.727295 2000.520020,537.728577 1944.485596,518.728271 
	C1914.006226,508.393188 1882.521240,506.883606 1850.723267,510.889191 
	C1812.773682,515.669617 1778.670044,529.198059 1750.175293,555.382874 
	C1749.175903,556.301331 1748.030884,557.061523 1746.150269,558.517517 
	C1746.150269,490.406891 1746.150269,423.358398 1746.150269,356.244873 
	C1705.410278,356.244873 1665.170898,356.244873 1624.606079,356.244873 
	C1624.606079,429.882690 1624.606079,503.191284 1624.606323,577.499939 
M2399.387939,402.499939 
	C2399.387939,580.075928 2399.387939,757.651855 2399.387939,935.238403 
	C2440.437988,935.238403 2480.666992,935.238403 2520.875977,935.238403 
	C2520.875977,741.981445 2520.875977,549.098572 2520.875977,356.250610 
	C2480.264160,356.250610 2440.029785,356.250610 2399.388184,356.250610 
	C2399.388184,371.557739 2399.388184,386.528809 2399.387939,402.499939 
M2164.239258,786.500000 
	C2164.239258,836.062439 2164.239258,885.624878 2164.239258,935.303650 
	C2205.284912,935.303650 2245.529053,935.303650 2285.752930,935.303650 
	C2285.752930,795.143127 2285.752930,655.291626 2285.752930,515.430908 
	C2245.172119,515.430908 2204.977539,515.430908 2164.239258,515.430908 
	C2164.239258,605.646362 2164.239258,695.573181 2164.239258,786.500000 
M964.307190,753.500000 
	C964.307190,674.234558 964.307190,594.969177 964.307190,515.570862 
	C923.507507,515.570862 883.220581,515.570862 842.944946,515.570862 
	C842.944946,655.704773 842.944946,795.410461 842.944946,935.240601 
	C883.495056,935.240601 923.705872,935.240601 964.307373,935.240601 
	C964.307373,874.748230 964.307373,814.624084 964.307190,753.500000 
M867.800171,449.743469 
	C877.469299,451.997772 887.035278,455.364136 896.829224,456.272430 
	C916.558228,458.102020 935.130676,454.023071 951.697205,442.244659 
	C986.597351,417.431427 991.617188,358.752991 948.986389,332.615417 
	C927.928589,319.704681 904.941406,318.168671 881.441467,323.234650 
	C852.388123,329.497742 830.875122,353.202118 828.090637,380.907166 
	C825.081116,410.850677 839.796936,436.639221 867.800171,449.743469 
M2210.398926,321.867249 
	C2204.769043,323.287842 2198.960693,324.220490 2193.537842,326.206024 
	C2149.421143,342.358093 2134.963867,397.147675 2165.604980,432.004486 
	C2179.575195,447.896576 2197.687012,455.238098 2218.495117,456.448853 
	C2241.645508,457.795929 2262.860840,452.964050 2280.258545,436.481445 
	C2308.941650,409.306763 2308.276611,363.205261 2278.560059,338.317291 
	C2258.956787,321.899261 2235.780029,318.858795 2210.398926,321.867249 
M139.930466,1200.500000 
	C139.930466,1241.906006 139.930466,1283.312012 139.930466,1324.851807 
	C162.798889,1324.851807 185.096466,1325.350586 207.356186,1324.648682 
	C219.093292,1324.278564 230.365387,1320.407349 236.753677,1309.457520 
	C244.436295,1296.289429 244.912277,1281.813354 241.119049,1267.378906 
	C237.822052,1254.832764 228.496521,1247.739990 216.280060,1243.353027 
	C230.362305,1237.150513 236.248871,1226.082153 237.458344,1211.690063 
	C239.767914,1184.207275 226.091827,1168.276001 198.554077,1167.600342 
	C179.755066,1167.139038 160.935745,1167.501343 142.125534,1167.519531 
	C141.493530,1167.520142 140.861801,1167.783447 139.930450,1167.991089 
	C139.930450,1178.544434 139.930450,1189.022217 139.930466,1200.500000 
M1697.937988,1325.078491 
	C1703.090088,1325.078491 1708.242310,1325.078491 1713.724243,1325.078491 
	C1725.179443,1287.087769 1736.582886,1249.268677 1748.162598,1210.865112 
	C1743.387939,1210.865112 1739.086060,1211.036865 1734.805908,1210.806396 
	C1731.805054,1210.644653 1730.493896,1211.570312 1729.677979,1214.639526 
	C1724.939087,1232.467529 1719.929443,1250.223511 1715.009766,1268.003540 
	C1711.338501,1281.271240 1707.664795,1294.538330 1703.608154,1309.193359 
	C1693.709229,1275.542114 1684.220703,1243.285400 1674.684448,1210.867065 
	C1671.328735,1210.867065 1668.309326,1211.155396 1665.368042,1210.798706 
	C1661.107300,1210.281982 1659.338867,1211.950806 1658.182129,1216.071411 
	C1652.207886,1237.354736 1645.919189,1258.550049 1639.701538,1279.764771 
	C1637.022095,1288.907349 1634.249390,1298.022583 1631.519043,1307.150269 
	C1631.142212,1307.146240 1630.765381,1307.142212 1630.388672,1307.138062 
	C1621.256104,1275.130859 1612.123657,1243.123535 1603.040161,1211.288330 
	C1597.146973,1211.288330 1591.630127,1211.288330 1585.670288,1211.288330 
	C1597.298706,1249.561279 1608.769897,1287.316895 1620.241089,1325.072510 
	C1625.342651,1325.072510 1629.855835,1324.801758 1634.318604,1325.159058 
	C1637.832397,1325.440308 1639.108276,1324.109863 1640.095093,1320.858643 
	C1648.253052,1293.979492 1656.614502,1267.161987 1664.922852,1240.328491 
	C1665.420532,1238.720581 1665.990601,1237.134888 1666.973267,1234.210938 
	C1667.989868,1237.270142 1668.529785,1238.791626 1669.002808,1240.333740 
	C1677.195312,1267.034424 1685.344727,1293.748535 1693.646362,1320.415283 
	C1694.187012,1322.152100 1695.883789,1323.529053 1697.937988,1325.078491 
M650.767578,1261.676880 
	C646.224609,1245.854858 641.734558,1230.017212 637.042969,1214.239380 
	C636.647400,1212.909058 634.967651,1211.111328 633.769165,1211.018433 
	C628.988464,1210.647583 624.162109,1210.865479 618.866882,1210.865479 
	C622.003235,1221.209717 624.988586,1231.048218 627.969238,1240.888306 
	C636.018311,1267.460815 644.043396,1294.040527 652.157349,1320.593140 
	C652.762085,1322.572266 652.581726,1325.343872 656.209412,1325.145874 
	C661.348633,1324.865601 666.514587,1325.074707 671.980042,1325.074707 
	C681.299011,1294.970093 690.572510,1265.012451 699.846008,1235.054810 
	C700.158936,1235.130493 700.471863,1235.206177 700.784851,1235.281738 
	C709.929321,1265.134033 719.073853,1294.986206 728.290222,1325.073120 
	C733.159363,1325.073120 737.822998,1324.853149 742.454163,1325.146362 
	C745.826843,1325.360107 747.294739,1324.401733 748.318726,1320.939941 
	C756.666138,1292.718872 765.296814,1264.581543 773.807678,1236.408691 
	C776.324707,1228.076660 778.734802,1219.712524 781.276245,1211.083496 
	C775.106140,1211.083496 769.663452,1211.083496 764.024109,1211.083496 
	C755.090881,1243.346802 746.199951,1275.457031 737.309082,1307.567261 
	C736.989502,1307.547241 736.669922,1307.527100 736.350342,1307.507080 
	C726.887451,1275.289429 717.424561,1243.071899 708.020020,1211.052979 
	C702.672180,1211.052979 698.035828,1211.052979 693.144714,1211.052979 
	C683.645569,1243.349731 674.177246,1275.541382 664.268250,1309.231567 
	C659.572021,1292.738647 655.262939,1277.605103 650.767578,1261.676880 
M1879.091431,1209.383545 
	C1867.918579,1213.261108 1856.745850,1217.138672 1845.345215,1221.095215 
	C1845.345215,1202.045654 1845.345215,1182.122925 1845.345215,1162.026245 
	C1839.529297,1162.026245 1834.249878,1162.026245 1828.783813,1162.026245 
	C1828.783813,1216.435913 1828.783813,1270.621582 1828.783813,1324.799438 
	C1834.459717,1324.799438 1839.721313,1324.799438 1845.372192,1324.799438 
	C1845.372192,1322.710449 1845.372192,1320.899902 1845.372192,1319.089355 
	C1845.372192,1292.758423 1845.321655,1266.427246 1845.472534,1240.097168 
	C1845.484009,1238.097656 1846.341675,1235.147461 1847.793823,1234.265137 
	C1858.046387,1228.035156 1869.165039,1224.223633 1881.317871,1224.216797 
	C1893.010498,1224.210327 1901.625122,1230.382202 1904.449707,1241.045410 
	C1905.330566,1244.370850 1905.485474,1247.960083 1905.502441,1251.430786 
	C1905.593018,1269.924072 1905.533813,1288.418091 1905.527588,1306.911865 
	C1905.525513,1312.862793 1905.527100,1318.813599 1905.527100,1324.864014 
	C1911.435425,1324.864014 1916.716187,1324.864014 1921.997681,1324.864014 
	C1922.195557,1324.186279 1922.452515,1323.716675 1922.452759,1323.246826 
	C1922.468872,1296.916992 1922.983276,1270.573364 1922.290527,1244.261719 
	C1921.767334,1224.389160 1911.732300,1212.331787 1894.924927,1209.503052 
	C1890.068726,1208.685791 1884.972534,1209.295044 1879.091431,1209.383545 
M1135.037476,1245.546387 
	C1135.037598,1244.213623 1135.213501,1242.852783 1135.005737,1241.553223 
	C1134.273926,1236.973022 1136.127197,1234.441528 1140.376465,1232.421387 
	C1148.710205,1228.459595 1157.128296,1225.380127 1166.412598,1224.407959 
	C1183.939087,1222.572510 1195.137451,1232.222168 1195.156738,1249.761230 
	C1195.182129,1272.917114 1195.162964,1296.073120 1195.162964,1319.229004 
	C1195.162964,1321.016235 1195.162842,1322.803589 1195.162842,1324.752686 
	C1201.051147,1324.752686 1206.430908,1324.752686 1211.950073,1324.752686 
	C1211.950073,1296.644043 1212.433594,1268.840088 1211.767212,1241.063721 
	C1211.373169,1224.637817 1200.747559,1212.794800 1185.873779,1209.764038 
	C1175.808716,1207.713013 1165.901123,1208.931030 1156.448242,1212.595703 
	C1149.252319,1215.385742 1142.385742,1219.025635 1135.003296,1222.459229 
	C1135.003296,1202.398682 1135.003296,1182.344604 1135.003296,1162.143188 
	C1129.184937,1162.143188 1123.810425,1162.143188 1118.324097,1162.143188 
	C1118.324097,1216.528687 1118.324097,1270.584229 1118.324097,1324.756348 
	C1123.980225,1324.756348 1129.363892,1324.756348 1135.037598,1324.756348 
	C1135.037598,1298.462891 1135.037598,1272.498535 1135.037476,1245.546387 
M545.979797,1285.446899 
	C545.647522,1271.516479 546.337585,1257.465820 544.716431,1243.687012 
	C542.817749,1227.548706 534.697266,1215.207275 517.431458,1211.387695 
	C504.076874,1208.433472 490.682648,1208.467773 477.296509,1211.227295 
	C464.140320,1213.939697 455.512726,1221.963745 451.967072,1234.675049 
	C445.805206,1256.765503 445.788544,1279.090576 452.055634,1301.170654 
	C455.547760,1313.474243 463.908630,1321.300293 476.589050,1324.194702 
	C490.108673,1327.280640 503.646545,1327.223633 517.175720,1324.381104 
	C529.635925,1321.762939 537.972778,1314.248657 542.034424,1302.288330 
	C543.787354,1297.126465 544.659912,1291.665405 545.979797,1285.446899 
M2194.337402,1212.038940 
	C2188.868164,1211.520508 2183.409180,1210.818359 2177.927979,1210.520264 
	C2164.805908,1209.806641 2151.635742,1208.540894 2138.673096,1211.980835 
	C2127.481689,1214.950439 2120.263916,1221.790161 2118.784180,1233.597290 
	C2118.145752,1238.692139 2117.973633,1243.887939 2118.089355,1249.026733 
	C2118.405273,1263.023315 2125.375977,1271.705200 2139.266113,1273.845703 
	C2148.083740,1275.204590 2157.169434,1275.059692 2166.139160,1275.146118 
	C2184.958008,1275.327026 2190.423584,1281.037231 2188.998291,1299.588257 
	C2188.453125,1306.682251 2185.277344,1310.753174 2178.151611,1311.866455 
	C2172.275146,1312.784668 2166.243408,1312.930542 2160.275635,1312.997803 
	C2146.676025,1313.151123 2133.073486,1313.046143 2119.337891,1313.046143 
	C2119.337891,1316.861694 2119.337891,1320.097290 2119.337891,1324.670654 
	C2136.006836,1325.203979 2152.425781,1326.118164 2168.841553,1326.062378 
	C2175.363525,1326.040161 2182.076172,1324.500488 2188.350342,1322.530640 
	C2198.540039,1319.331299 2203.393555,1311.520752 2203.990723,1301.042847 
	C2204.218262,1297.055664 2204.138184,1293.046753 2204.093994,1289.049072 
	C2203.926025,1273.874634 2195.831543,1263.980713 2180.808350,1262.097900 
	C2171.606689,1260.944580 2162.213623,1261.209961 2152.903076,1261.055420 
	C2136.590088,1260.784424 2132.522217,1256.663208 2132.912109,1240.423340 
	C2133.160400,1230.075928 2137.442383,1224.604126 2147.772949,1224.031250 
	C2163.049072,1223.184082 2178.383301,1223.381958 2193.692627,1223.143921 
	C2195.604980,1223.114136 2197.518066,1223.139771 2199.579590,1223.139771 
	C2199.579590,1219.380981 2199.579590,1216.422363 2199.579590,1213.236084 
	C2198.050781,1212.845947 2196.628906,1212.482910 2194.337402,1212.038940 
M1012.516602,1224.739868 
	C1019.803040,1224.739868 1027.089478,1224.739868 1034.563232,1224.739868 
	C1034.563232,1219.841919 1034.563232,1215.466797 1034.563232,1210.715820 
	C1023.588989,1210.715820 1012.977051,1210.715820 1001.814453,1210.715820 
	C1001.814453,1199.955566 1001.814453,1189.565186 1001.814453,1179.237671 
	C997.176147,1179.237671 993.103271,1179.237671 988.794800,1179.237671 
	C987.825073,1189.940430 986.882324,1200.344849 985.937256,1210.775635 
	C982.397217,1211.355347 979.282471,1211.825684 976.182861,1212.380493 
	C966.940857,1214.035034 966.939209,1214.048096 967.650879,1223.560425 
	C967.672424,1223.848755 967.971252,1224.116333 968.430298,1224.867188 
	C973.891418,1224.867188 979.643677,1224.867188 985.330322,1224.867188 
	C985.330322,1236.795288 985.240417,1248.245483 985.353210,1259.693726 
	C985.490906,1273.669800 985.051697,1287.708496 986.250427,1301.600342 
	C987.372437,1314.602905 994.990906,1322.303833 1007.901062,1324.132690 
	C1015.997375,1325.279785 1024.388306,1324.346313 1032.862549,1324.346313 
	C1032.862549,1320.799194 1032.862549,1317.026001 1032.862549,1312.888306 
	C1030.668457,1312.606689 1028.557739,1312.290894 1026.436646,1312.076782 
	C1024.448730,1311.876099 1022.435669,1311.889526 1020.458191,1311.625488 
	C1007.425171,1309.884888 1002.167664,1304.356567 1002.025574,1291.263428 
	C1001.792480,1269.788208 1001.925842,1248.308960 1001.931274,1226.831421 
	C1001.931458,1226.216431 1002.232178,1225.601440 1002.457153,1224.739624 
	C1005.563232,1224.739624 1008.543884,1224.739624 1012.516602,1224.739868 
M2278.967529,1222.290039 
	C2280.034668,1223.111694 2281.065918,1224.581421 2282.174805,1224.642578 
	C2286.947266,1224.905518 2291.742676,1224.754883 2296.877930,1224.754883 
	C2296.877930,1236.482910 2296.862061,1247.756836 2296.882080,1259.030762 
	C2296.905518,1272.337524 2296.437012,1285.672852 2297.161621,1298.942261 
	C2297.770752,1310.102539 2302.753906,1319.101685 2314.181152,1323.018188 
	C2324.018799,1326.390137 2334.113525,1324.785400 2344.231201,1324.946411 
	C2344.231201,1320.623047 2344.231201,1316.881958 2344.231201,1312.739746 
	C2340.668945,1312.438843 2337.381592,1312.166504 2334.095215,1311.882690 
	C2319.154053,1310.592285 2313.825195,1305.044556 2313.175049,1290.092896 
	C2313.117432,1288.762817 2313.105713,1287.429810 2313.105469,1286.098145 
	C2313.101074,1267.449829 2313.102539,1248.801636 2313.102539,1230.153320 
	C2313.102539,1228.534546 2313.102539,1226.915771 2313.102539,1224.703369 
	C2324.330566,1224.703369 2335.054199,1224.703369 2345.860352,1224.703369 
	C2345.860352,1219.843506 2345.860352,1215.584839 2345.860352,1210.769775 
	C2334.892334,1210.769775 2324.177002,1210.769775 2312.897949,1210.769775 
	C2312.897949,1199.836914 2312.897949,1189.458374 2312.897949,1179.156616 
	C2308.364014,1179.156616 2304.416504,1179.156616 2300.170898,1179.156616 
	C2299.211670,1189.754761 2298.271729,1200.140259 2297.315674,1210.702393 
	C2291.082275,1211.807617 2285.100586,1212.868164 2278.962158,1213.956543 
	C2278.962158,1216.729858 2278.962158,1219.049805 2278.967529,1222.290039 
M2451.473145,1306.990967 
	C2445.656250,1300.091064 2446.543457,1291.659424 2446.510254,1283.617065 
	C2446.350342,1244.813965 2446.433350,1206.009766 2446.430420,1167.206055 
	C2446.430420,1165.569458 2446.430420,1163.932983 2446.430420,1162.181274 
	C2440.579102,1162.181274 2435.208252,1162.181274 2429.465332,1162.181274 
	C2429.465332,1163.860352 2429.465576,1165.168945 2429.465332,1166.477539 
	C2429.460449,1196.779053 2429.402100,1227.080811 2429.475342,1257.382202 
	C2429.508057,1270.863647 2429.457520,1284.360718 2430.075684,1297.821655 
	C2430.765381,1312.840698 2437.760742,1322.148804 2450.413330,1324.370972 
	C2458.014648,1325.705811 2465.916992,1325.327271 2473.687012,1325.718872 
	C2473.687012,1320.979126 2473.687012,1317.078613 2473.687012,1313.137817 
	C2469.699707,1312.703491 2465.951904,1312.718384 2462.450928,1311.796509 
	C2458.843994,1310.846802 2455.477539,1308.984375 2451.473145,1306.990967 
M328.823883,1219.500000 
	C328.829224,1223.665039 328.830505,1227.830078 328.840607,1231.995117 
	C328.891510,1252.986450 328.617950,1273.985596 329.127075,1294.965820 
	C329.405426,1306.435791 332.092682,1317.427124 344.122864,1322.702148 
	C353.406708,1326.772949 363.252960,1325.247314 372.965149,1325.204468 
	C372.965149,1320.846069 372.965149,1317.086670 372.965149,1313.166626 
	C369.219208,1312.747070 365.763855,1312.341797 362.304321,1311.976074 
	C353.186646,1311.011963 348.383575,1306.862549 346.755615,1297.896240 
	C346.047424,1293.995850 345.885620,1289.953857 345.878021,1285.975220 
	C345.809845,1250.339111 345.831329,1214.703003 345.826691,1179.066772 
	C345.825989,1173.457031 345.826599,1167.847168 345.826599,1162.189941 
	C339.843475,1162.189941 334.462463,1162.189941 328.854584,1162.189941 
	C328.854584,1181.213379 328.854584,1199.856812 328.823883,1219.500000 
M2014.261597,1265.499756 
	C2014.261597,1285.262207 2014.261597,1305.024658 2014.261597,1324.819458 
	C2020.220337,1324.819458 2025.486084,1324.819458 2030.962158,1324.819458 
	C2030.962158,1286.835815 2030.962158,1249.113770 2030.962158,1211.233765 
	C2025.354858,1211.233765 2019.995850,1211.233765 2014.234497,1211.233765 
	C2014.234497,1229.239624 2014.234497,1246.869751 2014.261597,1265.499756 
M1422.657471,94.157288 
	C1415.772461,101.150406 1408.843994,108.101532 1402.022583,115.155991 
	C1399.012329,118.268875 1398.882812,121.805717 1401.862549,124.935364 
	C1404.758423,127.976997 1408.290894,128.140808 1411.806763,125.819168 
	C1412.764282,125.186775 1413.558960,124.293289 1414.380859,123.472054 
	C1429.557617,108.306664 1444.733887,93.140678 1459.885132,77.949707 
	C1461.049194,76.782684 1462.752808,75.521889 1462.931152,74.140144 
	C1463.264160,71.560013 1463.605957,68.016930 1462.194824,66.432205 
	C1460.611572,64.654083 1457.012329,63.796303 1454.437744,64.047836 
	C1452.315674,64.255157 1450.172974,66.427727 1448.446167,68.139633 
	C1439.942139,76.570282 1431.573486,85.137611 1422.657471,94.157288 
M1298.677002,115.018257 
	C1298.558105,114.901993 1298.437500,114.787529 1298.320679,114.669243 
	C1283.013428,99.179070 1267.717407,83.677551 1252.393311,68.204071 
	C1246.933350,62.690845 1242.807983,61.879814 1239.104370,65.463806 
	C1235.431519,69.018021 1236.197998,73.446945 1241.479004,78.670212 
	C1256.962524,93.984673 1272.474731,109.270203 1287.956299,124.586578 
	C1291.098999,127.695663 1294.568481,128.645966 1298.127686,125.650009 
	C1301.523315,122.791573 1302.157349,119.284630 1298.677002,115.018257 
M1344.364136,56.184212 
	C1343.860107,58.072289 1342.926025,59.958447 1342.917603,61.848732 
	C1342.818237,84.164581 1342.831787,106.481102 1342.878296,128.797318 
	C1342.889893,134.405701 1345.588257,137.561264 1350.154175,137.663879 
	C1354.918945,137.770950 1357.910034,134.435928 1357.920044,128.729172 
	C1357.958740,106.598686 1358.069336,84.466301 1357.768799,62.339863 
	C1357.732056,59.634151 1356.001709,56.215843 1353.928711,54.456051 
	C1351.221558,52.158005 1347.636597,52.919258 1344.364136,56.184212 
M2018.729004,1166.928589 
	C2014.706055,1166.434204 2013.424805,1168.455933 2013.600098,1172.194824 
	C2013.770874,1175.842651 2013.640869,1179.504883 2013.625244,1183.160767 
	C2013.594971,1190.213501 2013.680298,1190.357544 2020.909180,1190.299316 
	C2033.762817,1190.195557 2032.097412,1191.902588 2032.064087,1179.275391 
	C2032.026123,1164.915527 2034.100220,1167.129639 2018.729004,1166.928589 
z"/>
<path fill="#1FBD67" opacity="1.000000" stroke="none" 
	d="
M645.771790,921.849182 
	C616.609985,930.383362 587.142395,934.805847 557.251770,934.956116 
	C457.270569,935.458496 357.286743,935.432312 257.303925,935.598572 
	C256.327240,935.600220 255.350357,935.465759 253.998322,935.367493 
	C253.998322,753.298706 253.998322,571.419983 253.998322,389.137115 
	C255.110184,389.019958 256.377319,388.768829 257.644287,388.769684 
	C350.960205,388.831909 444.278717,388.538696 537.590759,389.182526 
	C574.080078,389.434296 609.921753,395.202087 643.722107,409.956360 
	C674.484192,423.384430 700.066772,443.041840 715.131104,473.856567 
	C741.082520,526.941223 730.226929,608.563599 660.762878,648.066284 
	C659.230225,648.937927 657.754028,649.908813 656.866333,650.455017 
	C669.065735,656.583313 681.885193,661.783264 693.408447,669.041260 
	C729.854797,691.997253 749.836975,725.471619 754.120117,768.309082 
	C756.728638,794.397888 754.503418,819.892700 743.825745,844.135864 
	C730.272034,874.908875 706.559082,895.582947 676.793518,909.743652 
	C666.915833,914.442810 656.388611,917.776672 645.771790,921.849182 
M514.500000,705.035583 
	C469.575195,705.035583 424.650360,705.035583 379.479980,705.035583 
	C379.479980,750.243103 379.479980,794.945190 379.479980,840.129761 
	C381.725616,840.129761 383.685822,840.129761 385.646057,840.129761 
	C432.951447,840.129761 480.257507,840.263000 527.561768,840.031433 
	C538.683838,839.977051 549.862244,839.200806 560.903748,837.849731 
	C576.386597,835.955200 591.123718,831.424866 604.276428,822.610168 
	C633.347473,803.127319 632.186462,759.726440 619.023438,738.978333 
	C609.227600,723.537537 594.309998,715.752014 577.395691,710.988586 
	C557.134399,705.282410 536.344177,704.817383 514.500000,705.035583 
M504.497131,484.000732 
	C462.891296,484.000732 421.285461,484.000732 379.561035,484.000732 
	C379.561035,527.220093 379.561035,569.922058 379.561035,612.929504 
	C381.579742,612.929504 383.228668,612.929565 384.877594,612.929565 
	C424.699615,612.929321 464.523621,613.152832 504.342407,612.793945 
	C516.446289,612.684875 528.636475,611.635925 540.607361,609.827515 
	C557.314941,607.303467 572.956360,601.514954 585.095154,589.089600 
	C613.109375,560.414246 602.534424,510.216736 565.123779,494.086121 
	C546.110535,485.888062 525.922546,484.109589 504.497131,484.000732 
z"/>
<path fill="#1FBD67" opacity="1.000000" stroke="none" 
	d="
M1511.191406,837.000000 
	C1510.464722,860.965088 1510.911011,884.538757 1508.751709,907.871277 
	C1504.981079,948.615601 1493.151489,986.826050 1467.262451,1019.530090 
	C1443.956909,1048.970215 1413.296997,1067.521118 1378.004272,1078.981567 
	C1341.446167,1090.852783 1303.745605,1093.967529 1265.581055,1093.161743 
	C1213.013184,1092.051880 1161.946655,1083.464722 1113.531494,1062.073608 
	C1097.808716,1055.126831 1083.101562,1046.418457 1069.156250,1035.565552 
	C1085.275024,1006.415833 1101.269897,977.490234 1117.066162,948.923767 
	C1127.155151,955.128967 1136.740112,961.798889 1146.998901,967.185608 
	C1175.287720,982.039368 1205.611572,990.447937 1237.303955,994.029968 
	C1262.294922,996.854553 1287.190308,996.586670 1311.820679,990.977234 
	C1339.114990,984.761169 1361.589966,971.564880 1375.394409,946.158386 
	C1383.985352,930.347229 1387.804810,913.190247 1388.854736,895.439026 
	C1389.461060,885.188843 1388.964844,874.873352 1388.964844,863.929260 
	C1384.716797,867.895935 1380.875854,871.682068 1376.826782,875.230713 
	C1352.676880,896.395691 1324.192993,908.154602 1292.734009,912.604004 
	C1246.722534,919.111816 1201.879761,914.638245 1159.701050,894.186401 
	C1096.958374,863.763367 1059.195801,814.122742 1048.914185,744.787170 
	C1042.652222,702.558044 1046.851318,661.252930 1065.749634,622.499451 
	C1093.944214,564.682983 1140.905884,529.872253 1202.785034,515.182861 
	C1245.251831,505.101624 1287.701294,506.179565 1329.214966,520.986816 
	C1353.888428,529.787476 1374.591309,544.499146 1391.686890,564.321472 
	C1392.714355,565.512817 1393.820923,566.635742 1395.653809,568.614258 
	C1395.653809,550.267090 1395.653809,533.033997 1395.653809,515.474487 
	C1434.286865,515.474487 1472.466309,515.474487 1511.191406,515.474487 
	C1511.191406,622.604797 1511.191406,729.552368 1511.191406,837.000000 
M1173.372437,740.981018 
	C1181.277588,770.145142 1199.650635,790.623779 1226.373291,803.746765 
	C1249.681152,815.192810 1274.569946,817.073608 1299.961182,813.974487 
	C1328.064331,810.544373 1351.701904,798.439819 1369.778198,776.399109 
	C1386.598022,755.890381 1392.133301,731.768250 1390.841797,705.867737 
	C1388.997681,668.889038 1372.250000,640.498230 1339.493164,622.995361 
	C1306.080200,605.141907 1270.808472,604.400757 1235.544678,616.840576 
	C1207.308716,626.801147 1186.896240,645.968933 1176.280029,674.343445 
	C1168.244385,695.821228 1168.117065,717.945312 1173.372437,740.981018 
z"/>
<path fill="#1FBD67" opacity="1.000000" stroke="none" 
	d="
M1624.606201,576.999878 
	C1624.606079,503.191284 1624.606079,429.882690 1624.606079,356.244873 
	C1665.170898,356.244873 1705.410278,356.244873 1746.150269,356.244873 
	C1746.150269,423.358398 1746.150269,490.406891 1746.150269,558.517517 
	C1748.030884,557.061523 1749.175903,556.301331 1750.175293,555.382874 
	C1778.670044,529.198059 1812.773682,515.669617 1850.723267,510.889191 
	C1882.521240,506.883606 1914.006226,508.393188 1944.485596,518.728271 
	C2000.520020,537.728577 2034.668945,576.727295 2047.970947,634.229126 
	C2053.416260,657.767639 2054.217041,681.664978 2054.165283,705.701904 
	C2054.003906,780.693970 2054.102539,855.686584 2054.100098,930.679016 
	C2054.100098,932.141418 2054.099854,933.603760 2054.099854,935.336914 
	C2013.396484,935.336914 1973.150146,935.336914 1932.241089,935.336914 
	C1932.241089,933.145081 1932.242065,931.211121 1932.241089,929.277100 
	C1932.204102,854.950623 1932.221802,780.624084 1932.087402,706.297791 
	C1932.057617,689.846619 1929.378784,673.763306 1922.734741,658.609802 
	C1911.854858,633.795654 1892.400513,620.063049 1865.942749,616.001526 
	C1843.956665,612.626282 1822.319580,614.181152 1801.848389,623.314819 
	C1772.447266,636.432800 1756.073242,660.119629 1750.139648,691.076965 
	C1747.772095,703.429382 1746.537720,716.182434 1746.471924,728.761902 
	C1746.122192,795.589050 1746.307373,862.418945 1746.307373,929.247925 
	C1746.307373,931.197693 1746.307373,933.147461 1746.307373,935.350830 
	C1705.622925,935.350830 1665.522705,935.350830 1624.606323,935.350830 
	C1624.606323,815.964722 1624.606323,696.732300 1624.606201,576.999878 
z"/>
<path fill="#20BD67" opacity="1.000000" stroke="none" 
	d="
M2399.388184,401.999939 
	C2399.388184,386.528809 2399.388184,371.557739 2399.388184,356.250610 
	C2440.029785,356.250610 2480.264160,356.250610 2520.875977,356.250610 
	C2520.875977,549.098572 2520.875977,741.981445 2520.875977,935.238403 
	C2480.666992,935.238403 2440.437988,935.238403 2399.387939,935.238403 
	C2399.387939,757.651855 2399.387939,580.075928 2399.388184,401.999939 
z"/>
<path fill="#20BD67" opacity="1.000000" stroke="none" 
	d="
M2164.239258,786.000000 
	C2164.239258,695.573181 2164.239258,605.646362 2164.239258,515.430908 
	C2204.977539,515.430908 2245.172119,515.430908 2285.752930,515.430908 
	C2285.752930,655.291626 2285.752930,795.143127 2285.752930,935.303650 
	C2245.529053,935.303650 2205.284912,935.303650 2164.239258,935.303650 
	C2164.239258,885.624878 2164.239258,836.062439 2164.239258,786.000000 
z"/>
<path fill="#1FBD67" opacity="1.000000" stroke="none" 
	d="
M964.307251,754.000000 
	C964.307373,814.624084 964.307373,874.748230 964.307373,935.240601 
	C923.705872,935.240601 883.495056,935.240601 842.944946,935.240601 
	C842.944946,795.410461 842.944946,655.704773 842.944946,515.570862 
	C883.220581,515.570862 923.507507,515.570862 964.307190,515.570862 
	C964.307190,594.969177 964.307190,674.234558 964.307251,754.000000 
z"/>
<path fill="#1FBD67" opacity="1.000000" stroke="none" 
	d="
M867.474976,449.549683 
	C839.796936,436.639221 825.081116,410.850677 828.090637,380.907166 
	C830.875122,353.202118 852.388123,329.497742 881.441467,323.234650 
	C904.941406,318.168671 927.928589,319.704681 948.986389,332.615417 
	C991.617188,358.752991 986.597351,417.431427 951.697205,442.244659 
	C935.130676,454.023071 916.558228,458.102020 896.829224,456.272430 
	C887.035278,455.364136 877.469299,451.997772 867.474976,449.549683 
z"/>
<path fill="#1FBD67" opacity="1.000000" stroke="none" 
	d="
M2210.838867,321.809204 
	C2235.780029,318.858795 2258.956787,321.899261 2278.560059,338.317291 
	C2308.276611,363.205261 2308.941650,409.306763 2280.258545,436.481445 
	C2262.860840,452.964050 2241.645508,457.795929 2218.495117,456.448853 
	C2197.687012,455.238098 2179.575195,447.896576 2165.604980,432.004486 
	C2134.963867,397.147675 2149.421143,342.358093 2193.537842,326.206024 
	C2198.960693,324.220490 2204.769043,323.287842 2210.838867,321.809204 
z"/>
<path fill="#12C463" opacity="1.000000" stroke="none" 
	d="
M139.930450,1200.000000 
	C139.930450,1189.022217 139.930450,1178.544434 139.930450,1167.991089 
	C140.861801,1167.783447 141.493530,1167.520142 142.125534,1167.519531 
	C160.935745,1167.501343 179.755066,1167.139038 198.554077,1167.600342 
	C226.091827,1168.276001 239.767914,1184.207275 237.458344,1211.690063 
	C236.248871,1226.082153 230.362305,1237.150513 216.280060,1243.353027 
	C228.496521,1247.739990 237.822052,1254.832764 241.119049,1267.378906 
	C244.912277,1281.813354 244.436295,1296.289429 236.753677,1309.457520 
	C230.365387,1320.407349 219.093292,1324.278564 207.356186,1324.648682 
	C185.096466,1325.350586 162.798889,1324.851807 139.930466,1324.851807 
	C139.930466,1283.312012 139.930466,1241.906006 139.930450,1200.000000 
M201.192444,1309.939209 
	C215.413742,1308.755859 222.901291,1303.578003 225.332748,1291.828125 
	C226.589066,1285.757080 226.972107,1279.210938 226.195404,1273.076294 
	C224.674332,1261.062256 215.699188,1252.042114 203.623230,1251.366089 
	C188.269318,1250.506714 172.830872,1251.158081 157.003525,1251.158081 
	C157.003525,1269.461426 157.003525,1287.557373 157.003525,1305.653198 
	C157.003525,1306.938110 157.003525,1308.222900 157.003525,1309.959961 
	C171.729355,1309.959961 185.991745,1309.959961 201.192444,1309.939209 
M157.003510,1192.535889 
	C157.003510,1207.299561 157.003510,1222.063232 157.003510,1237.207397 
	C171.090530,1237.207397 184.677826,1237.170776 198.264801,1237.220093 
	C207.640610,1237.254028 214.621094,1232.818604 217.795914,1224.412720 
	C220.068008,1218.397095 220.926468,1211.514282 220.886963,1205.027710 
	C220.803162,1191.270752 212.305511,1183.238647 198.464844,1183.019287 
	C185.822800,1182.818848 173.175186,1182.961548 160.530060,1182.980957 
	C159.430664,1182.982544 158.331589,1183.191650 157.003510,1183.327759 
	C157.003510,1186.264282 157.003510,1188.905762 157.003510,1192.535889 
z"/>
<path fill="#2EE17E" opacity="1.000000" stroke="none" 
	d="
M1323.611572,434.987793 
	C1296.806396,468.589813 1262.255981,489.741760 1220.177124,498.019470 
	C1128.657593,516.023193 1039.483765,461.101959 1014.653687,371.487305 
	C1003.794067,332.293365 1006.682373,293.772339 1022.725525,256.316772 
	C1025.495850,262.147461 1028.335083,263.979797 1034.921143,264.372498 
	C1029.296143,279.237030 1025.349854,294.200684 1024.198608,309.695892 
	C1020.269897,362.568390 1036.998291,407.778900 1076.098877,443.866882 
	C1129.863159,493.489044 1211.364746,500.300354 1273.097412,461.041016 
	C1288.270386,451.391693 1301.163818,439.242645 1312.903320,426.137054 
	C1313.327881,431.423981 1317.636719,434.829376 1323.611572,434.987793 
z"/>
<path fill="#22D974" opacity="1.000000" stroke="none" 
	d="
M1697.490479,1325.075928 
	C1695.883789,1323.529053 1694.187012,1322.152100 1693.646362,1320.415283 
	C1685.344727,1293.748535 1677.195312,1267.034424 1669.002808,1240.333740 
	C1668.529785,1238.791626 1667.989868,1237.270142 1666.973267,1234.210938 
	C1665.990601,1237.134888 1665.420532,1238.720581 1664.922852,1240.328491 
	C1656.614502,1267.161987 1648.253052,1293.979492 1640.095093,1320.858643 
	C1639.108276,1324.109863 1637.832397,1325.440308 1634.318604,1325.159058 
	C1629.855835,1324.801758 1625.342651,1325.072510 1620.241089,1325.072510 
	C1608.769897,1287.316895 1597.298706,1249.561279 1585.670288,1211.288330 
	C1591.630127,1211.288330 1597.146973,1211.288330 1603.040161,1211.288330 
	C1612.123657,1243.123535 1621.256104,1275.130859 1630.388672,1307.138062 
	C1630.765381,1307.142212 1631.142212,1307.146240 1631.519043,1307.150269 
	C1634.249390,1298.022583 1637.022095,1288.907349 1639.701538,1279.764771 
	C1645.919189,1258.550049 1652.207886,1237.354736 1658.182129,1216.071411 
	C1659.338867,1211.950806 1661.107300,1210.281982 1665.368042,1210.798706 
	C1668.309326,1211.155396 1671.328735,1210.867065 1674.684448,1210.867065 
	C1684.220703,1243.285400 1693.709229,1275.542114 1703.608154,1309.193359 
	C1707.664795,1294.538330 1711.338501,1281.271240 1715.009766,1268.003540 
	C1719.929443,1250.223511 1724.939087,1232.467529 1729.677979,1214.639526 
	C1730.493896,1211.570312 1731.805054,1210.644653 1734.805908,1210.806396 
	C1739.086060,1211.036865 1743.387939,1210.865112 1748.162598,1210.865112 
	C1736.582886,1249.268677 1725.179443,1287.087769 1713.724243,1325.078491 
	C1708.242310,1325.078491 1703.090088,1325.078491 1697.490479,1325.075928 
z"/>
<path fill="#14C464" opacity="1.000000" stroke="none" 
	d="
M650.860718,1262.074219 
	C655.262939,1277.605103 659.572021,1292.738647 664.268250,1309.231567 
	C674.177246,1275.541382 683.645569,1243.349731 693.144714,1211.052979 
	C698.035828,1211.052979 702.672180,1211.052979 708.020020,1211.052979 
	C717.424561,1243.071899 726.887451,1275.289429 736.350342,1307.507080 
	C736.669922,1307.527100 736.989502,1307.547241 737.309082,1307.567261 
	C746.199951,1275.457031 755.090881,1243.346802 764.024109,1211.083496 
	C769.663452,1211.083496 775.106140,1211.083496 781.276245,1211.083496 
	C778.734802,1219.712524 776.324707,1228.076660 773.807678,1236.408691 
	C765.296814,1264.581543 756.666138,1292.718872 748.318726,1320.939941 
	C747.294739,1324.401733 745.826843,1325.360107 742.454163,1325.146362 
	C737.822998,1324.853149 733.159363,1325.073120 728.290222,1325.073120 
	C719.073853,1294.986206 709.929321,1265.134033 700.784851,1235.281738 
	C700.471863,1235.206177 700.158936,1235.130493 699.846008,1235.054810 
	C690.572510,1265.012451 681.299011,1294.970093 671.980042,1325.074707 
	C666.514587,1325.074707 661.348633,1324.865601 656.209412,1325.145874 
	C652.581726,1325.343872 652.762085,1322.572266 652.157349,1320.593140 
	C644.043396,1294.040527 636.018311,1267.460815 627.969238,1240.888306 
	C624.988586,1231.048218 622.003235,1221.209717 618.866882,1210.865479 
	C624.162109,1210.865479 628.988464,1210.647583 633.769165,1211.018433 
	C634.967651,1211.111328 636.647400,1212.909058 637.042969,1214.239380 
	C641.734558,1230.017212 646.224609,1245.854858 650.860718,1262.074219 
z"/>
<path fill="#21C168" opacity="1.000000" stroke="none" 
	d="
M1680.571777,205.117249 
	C1680.598511,205.817673 1680.625366,206.518082 1680.432861,207.853485 
	C1680.334839,210.021515 1680.456055,211.554596 1680.577148,213.087677 
	C1680.602417,213.796127 1680.627563,214.504578 1680.427368,215.883728 
	C1680.327393,218.731522 1680.452759,220.908600 1680.578247,223.085678 
	C1680.603149,223.794876 1680.628174,224.504089 1680.417480,225.929398 
	C1680.117432,239.698959 1680.002686,252.752457 1680.018799,265.805817 
	C1680.023804,269.899170 1680.381836,273.992065 1680.578369,278.085175 
	C1680.539429,278.914062 1680.500366,279.742981 1680.037964,280.828644 
	C1679.501343,281.201965 1679.388184,281.318512 1679.275024,281.435059 
	C1679.501099,281.631378 1679.727295,281.827698 1679.953491,282.023987 
	C1677.180420,287.591980 1674.407349,293.160034 1671.099854,298.595428 
	C1666.046021,296.010773 1661.526367,293.558746 1657.144287,290.991272 
	C1657.281738,290.875793 1657.640747,290.869232 1657.924561,290.825500 
	C1658.470703,290.515594 1658.733154,290.249420 1659.177979,289.701050 
	C1663.294800,286.173645 1665.446167,282.200714 1665.432251,276.901825 
	C1665.343140,243.072235 1665.412109,209.242264 1665.359741,175.412521 
	C1665.346924,167.162292 1661.287842,163.066833 1653.081299,163.062378 
	C1579.256470,163.022247 1505.431641,163.020355 1431.606934,163.110413 
	C1430.084961,163.112259 1428.564697,164.351990 1426.675293,164.971466 
	C1422.103760,162.657898 1417.802979,160.829910 1412.849731,161.961395 
	C1413.409912,159.366013 1413.873535,156.745117 1414.552246,154.181137 
	C1415.620605,150.144302 1418.313843,148.049210 1422.520508,147.983368 
	C1424.019531,147.959900 1425.518921,147.968994 1427.018188,147.968918 
	C1501.315063,147.964859 1575.614258,148.268616 1649.907349,147.731766 
	C1667.456299,147.604965 1682.114624,158.440582 1680.715210,178.983780 
	C1680.579712,180.972183 1680.680542,182.976700 1680.483154,185.554077 
	C1680.386963,186.462006 1680.479370,186.789566 1680.571777,187.117126 
	C1680.603149,189.091476 1680.634521,191.065826 1680.479858,193.587189 
	C1680.386353,194.461884 1680.479004,194.789566 1680.571777,195.117249 
	C1680.601685,196.441681 1680.631592,197.766144 1680.477417,199.612335 
	C1680.386108,200.461792 1680.478882,200.789520 1680.571655,201.117249 
	C1680.598999,201.808716 1680.626465,202.500198 1680.473633,203.662811 
	C1680.386353,204.461716 1680.479004,204.789490 1680.571777,205.117249 
z"/>
<path fill="#20D571" opacity="1.000000" stroke="none" 
	d="
M1879.538818,1209.316895 
	C1884.972534,1209.295044 1890.068726,1208.685791 1894.924927,1209.503052 
	C1911.732300,1212.331787 1921.767334,1224.389160 1922.290527,1244.261719 
	C1922.983276,1270.573364 1922.468872,1296.916992 1922.452759,1323.246826 
	C1922.452515,1323.716675 1922.195557,1324.186279 1921.997681,1324.864014 
	C1916.716187,1324.864014 1911.435425,1324.864014 1905.527100,1324.864014 
	C1905.527100,1318.813599 1905.525513,1312.862793 1905.527588,1306.911865 
	C1905.533813,1288.418091 1905.593018,1269.924072 1905.502441,1251.430786 
	C1905.485474,1247.960083 1905.330566,1244.370850 1904.449707,1241.045410 
	C1901.625122,1230.382202 1893.010498,1224.210327 1881.317871,1224.216797 
	C1869.165039,1224.223633 1858.046387,1228.035156 1847.793823,1234.265137 
	C1846.341675,1235.147461 1845.484009,1238.097656 1845.472534,1240.097168 
	C1845.321655,1266.427246 1845.372192,1292.758423 1845.372192,1319.089355 
	C1845.372192,1320.899902 1845.372192,1322.710449 1845.372192,1324.799438 
	C1839.721313,1324.799438 1834.459717,1324.799438 1828.783813,1324.799438 
	C1828.783813,1270.621582 1828.783813,1216.435913 1828.783813,1162.026245 
	C1834.249878,1162.026245 1839.529297,1162.026245 1845.345215,1162.026245 
	C1845.345215,1182.122925 1845.345215,1202.045654 1845.345215,1221.095215 
	C1856.745850,1217.138672 1867.918579,1213.261108 1879.538818,1209.316895 
z"/>
<path fill="#12C463" opacity="1.000000" stroke="none" 
	d="
M1135.037598,1246.040283 
	C1135.037598,1272.498535 1135.037598,1298.462891 1135.037598,1324.756348 
	C1129.363892,1324.756348 1123.980225,1324.756348 1118.324097,1324.756348 
	C1118.324097,1270.584229 1118.324097,1216.528687 1118.324097,1162.143188 
	C1123.810425,1162.143188 1129.184937,1162.143188 1135.003296,1162.143188 
	C1135.003296,1182.344604 1135.003296,1202.398682 1135.003296,1222.459229 
	C1142.385742,1219.025635 1149.252319,1215.385742 1156.448242,1212.595703 
	C1165.901123,1208.931030 1175.808716,1207.713013 1185.873779,1209.764038 
	C1200.747559,1212.794800 1211.373169,1224.637817 1211.767212,1241.063721 
	C1212.433594,1268.840088 1211.950073,1296.644043 1211.950073,1324.752686 
	C1206.430908,1324.752686 1201.051147,1324.752686 1195.162842,1324.752686 
	C1195.162842,1322.803589 1195.162964,1321.016235 1195.162964,1319.229004 
	C1195.162964,1296.073120 1195.182129,1272.917114 1195.156738,1249.761230 
	C1195.137451,1232.222168 1183.939087,1222.572510 1166.412598,1224.407959 
	C1157.128296,1225.380127 1148.710205,1228.459595 1140.376465,1232.421387 
	C1136.127197,1234.441528 1134.273926,1236.973022 1135.005737,1241.553223 
	C1135.213501,1242.852783 1135.037598,1244.213623 1135.037598,1246.040283 
z"/>
<path fill="#14C464" opacity="1.000000" stroke="none" 
	d="
M545.956055,1285.893555 
	C544.659912,1291.665405 543.787354,1297.126465 542.034424,1302.288330 
	C537.972778,1314.248657 529.635925,1321.762939 517.175720,1324.381104 
	C503.646545,1327.223633 490.108673,1327.280640 476.589050,1324.194702 
	C463.908630,1321.300293 455.547760,1313.474243 452.055634,1301.170654 
	C445.788544,1279.090576 445.805206,1256.765503 451.967072,1234.675049 
	C455.512726,1221.963745 464.140320,1213.939697 477.296509,1211.227295 
	C490.682648,1208.467773 504.076874,1208.433472 517.431458,1211.387695 
	C534.697266,1215.207275 542.817749,1227.548706 544.716431,1243.687012 
	C546.337585,1257.465820 545.647522,1271.516479 545.956055,1285.893555 
M520.485291,1306.003174 
	C522.585449,1302.265869 525.618225,1298.762695 526.625122,1294.751099 
	C531.111572,1276.876709 531.090393,1258.788818 526.775513,1240.893677 
	C524.293762,1230.600952 517.273987,1224.644653 506.527832,1223.942139 
	C500.585876,1223.553711 494.555817,1223.364502 488.642975,1223.916260 
	C475.900024,1225.105103 469.898956,1230.544800 467.015686,1242.964966 
	C463.813995,1256.756836 464.177338,1270.734985 465.633087,1284.673706 
	C466.110779,1289.247803 467.395081,1293.813354 468.880676,1298.189209 
	C471.309296,1305.342896 476.328064,1310.349731 483.949677,1311.075439 
	C492.163239,1311.857544 500.528992,1312.031738 508.742767,1311.384766 
	C512.588257,1311.081909 516.232605,1308.225220 520.485291,1306.003174 
z"/>
<path fill="#26CB70" opacity="1.000000" stroke="none" 
	d="
M1412.609375,162.229767 
	C1417.802979,160.829910 1422.103760,162.657898 1426.693359,165.316635 
	C1426.640015,166.737335 1426.059204,167.733658 1425.781738,168.808334 
	C1421.910889,183.797623 1410.453979,193.171631 1395.413696,193.218491 
	C1365.447144,193.311859 1335.479858,193.318283 1305.513306,193.205383 
	C1291.552246,193.152786 1282.032349,185.999802 1276.144165,173.688889 
	C1274.501587,170.254471 1274.218994,165.097336 1271.609863,163.483841 
	C1268.712158,161.691879 1263.867432,163.039200 1259.870361,163.036057 
	C1250.709961,163.028870 1241.547485,162.907089 1232.389404,163.054276 
	C1207.276611,163.457840 1182.090942,161.569107 1156.918823,165.042221 
	C1153.198364,162.661285 1149.764648,160.333527 1146.044434,158.632858 
	C1143.157471,157.313095 1143.052856,155.569885 1144.005005,153.133759 
	C1145.740234,152.720383 1147.475342,152.307007 1149.747803,152.158737 
	C1151.181030,152.021942 1152.077026,151.620026 1152.973022,151.218109 
	C1164.031860,150.132706 1175.079224,148.272598 1186.151611,148.111160 
	C1216.093262,147.674591 1246.045410,147.955002 1275.993408,147.963028 
	C1283.401978,147.965012 1285.005615,149.205856 1286.782227,156.185959 
	C1287.437378,158.760284 1288.025146,161.352798 1288.731445,163.912811 
	C1291.287354,173.177597 1297.707642,178.106552 1307.227905,178.108902 
	C1335.677734,178.115875 1364.127441,178.109680 1392.577271,178.103622 
	C1403.819458,178.101227 1409.854126,173.336594 1412.609375,162.229767 
z"/>
<path fill="#16C564" opacity="1.000000" stroke="none" 
	d="
M2629.999023,1268.995850 
	C2624.067383,1273.691284 2616.966064,1274.648438 2609.814697,1274.785156 
	C2597.010986,1275.029907 2584.198975,1274.857788 2571.390625,1274.859863 
	C2569.434082,1274.860107 2567.477783,1274.859863 2564.916748,1274.859863 
	C2565.735107,1281.634644 2566.050049,1287.799805 2567.290771,1293.772827 
	C2569.887451,1306.273926 2578.619385,1312.559814 2593.943604,1312.927979 
	C2606.921631,1313.239746 2619.912598,1313.022583 2632.897705,1313.039062 
	C2634.045898,1313.040527 2635.194092,1313.039429 2636.706543,1313.039429 
	C2636.706543,1316.484375 2636.706543,1319.720947 2636.706543,1323.567139 
	C2631.017578,1324.199341 2625.134521,1325.320923 2619.235352,1325.413086 
	C2606.293457,1325.615356 2593.218018,1326.387573 2580.427490,1324.920288 
	C2563.510498,1322.979858 2554.605469,1313.689697 2551.119629,1296.801758 
	C2547.137207,1277.507935 2547.183350,1258.083130 2551.112793,1238.796021 
	C2554.271484,1223.291870 2563.306641,1213.419556 2579.513916,1210.706665 
	C2591.821777,1208.646484 2604.111084,1208.370728 2616.176270,1211.323242 
	C2621.317139,1212.581299 2625.947266,1215.927734 2630.630859,1218.921021 
	C2630.300293,1221.307129 2630.020996,1223.097290 2630.016846,1224.887817 
	C2629.981934,1239.590454 2629.998291,1254.293213 2629.999023,1268.995850 
M2608.902100,1223.276123 
	C2601.133789,1223.194824 2593.327393,1222.604126 2585.608887,1223.183838 
	C2578.677002,1223.704102 2572.949707,1227.225830 2569.786133,1233.815918 
	C2565.279053,1243.205566 2565.263916,1253.261353 2565.047607,1263.761597 
	C2573.820557,1263.761597 2581.940186,1263.850708 2590.057129,1263.736084 
	C2597.693604,1263.628296 2605.399902,1263.845947 2612.928955,1262.831665 
	C2616.288086,1262.379272 2620.415039,1260.004395 2622.253418,1257.220825 
	C2629.816406,1245.770752 2622.736816,1227.541138 2608.902100,1223.276123 
z"/>
<path fill="#1CCF6C" opacity="1.000000" stroke="none" 
	d="
M2194.772217,1212.079468 
	C2196.628906,1212.482910 2198.050781,1212.845947 2199.579590,1213.236084 
	C2199.579590,1216.422363 2199.579590,1219.380981 2199.579590,1223.139771 
	C2197.518066,1223.139771 2195.604980,1223.114136 2193.692627,1223.143921 
	C2178.383301,1223.381958 2163.049072,1223.184082 2147.772949,1224.031250 
	C2137.442383,1224.604126 2133.160400,1230.075928 2132.912109,1240.423340 
	C2132.522217,1256.663208 2136.590088,1260.784424 2152.903076,1261.055420 
	C2162.213623,1261.209961 2171.606689,1260.944580 2180.808350,1262.097900 
	C2195.831543,1263.980713 2203.926025,1273.874634 2204.093994,1289.049072 
	C2204.138184,1293.046753 2204.218262,1297.055664 2203.990723,1301.042847 
	C2203.393555,1311.520752 2198.540039,1319.331299 2188.350342,1322.530640 
	C2182.076172,1324.500488 2175.363525,1326.040161 2168.841553,1326.062378 
	C2152.425781,1326.118164 2136.006836,1325.203979 2119.337891,1324.670654 
	C2119.337891,1320.097290 2119.337891,1316.861694 2119.337891,1313.046143 
	C2133.073486,1313.046143 2146.676025,1313.151123 2160.275635,1312.997803 
	C2166.243408,1312.930542 2172.275146,1312.784668 2178.151611,1311.866455 
	C2185.277344,1310.753174 2188.453125,1306.682251 2188.998291,1299.588257 
	C2190.423584,1281.037231 2184.958008,1275.327026 2166.139160,1275.146118 
	C2157.169434,1275.059692 2148.083740,1275.204590 2139.266113,1273.845703 
	C2125.375977,1271.705200 2118.405273,1263.023315 2118.089355,1249.026733 
	C2117.973633,1243.887939 2118.145752,1238.692139 2118.784180,1233.597290 
	C2120.263916,1221.790161 2127.481689,1214.950439 2138.673096,1211.980835 
	C2151.635742,1208.540894 2164.805908,1209.806641 2177.927979,1210.520264 
	C2183.409180,1210.818359 2188.868164,1211.520508 2194.772217,1212.079468 
z"/>
<path fill="#14C464" opacity="1.000000" stroke="none" 
	d="
M1375.054199,1272.154785 
	C1369.873901,1273.059692 1364.710327,1274.609253 1359.509888,1274.745239 
	C1345.558716,1275.109985 1331.591797,1274.869629 1316.977783,1274.869629 
	C1317.170288,1284.302734 1317.223267,1293.474976 1321.886719,1301.651611 
	C1327.050781,1310.706177 1336.257568,1312.558350 1345.581543,1312.876465 
	C1358.394897,1313.313721 1371.233032,1313.026123 1384.505615,1313.309082 
	C1384.950684,1313.568970 1384.837158,1313.953979 1384.406006,1313.968384 
	C1381.242554,1313.982788 1378.510132,1313.982788 1375.810181,1313.982788 
	C1375.525513,1317.882202 1375.271240,1321.365601 1375.016968,1324.848999 
	C1360.598999,1324.948486 1346.108643,1325.993042 1331.782715,1324.893188 
	C1316.057495,1323.685913 1306.554688,1313.677124 1303.148438,1298.514160 
	C1298.683105,1278.635742 1298.727905,1258.607422 1302.805542,1238.620850 
	C1306.107666,1222.435059 1315.837891,1212.874756 1332.249512,1210.468018 
	C1346.550293,1208.370483 1360.755737,1208.364014 1374.810791,1214.027100 
	C1374.989380,1221.532959 1374.962402,1228.324463 1374.700195,1234.861328 
	C1372.460083,1228.723633 1368.229858,1225.389526 1362.332764,1223.872314 
	C1352.606934,1221.370117 1342.794556,1221.061279 1333.277344,1224.202148 
	C1329.545166,1225.433838 1325.470459,1227.930786 1323.265747,1231.059570 
	C1316.403564,1240.796997 1316.887207,1252.197266 1316.910034,1263.697144 
	C1331.814331,1263.697144 1345.959106,1263.822632 1360.099487,1263.636719 
	C1365.917236,1263.560181 1371.284546,1261.891357 1374.870850,1256.970947 
	C1374.977539,1262.241577 1375.015869,1267.198120 1375.054199,1272.154785 
z"/>
<path fill="#27CB71" opacity="1.000000" stroke="none" 
	d="
M1657.006836,291.106750 
	C1661.526367,293.558746 1666.046021,296.010773 1670.784180,298.734650 
	C1666.479370,303.940826 1660.573853,305.951050 1654.181030,306.745514 
	C1605.444580,312.802032 1556.704590,318.830292 1507.962036,324.837036 
	C1486.982056,327.422455 1465.993164,329.935944 1444.513916,332.138550 
	C1443.671021,331.354462 1443.322632,330.913971 1442.974121,330.473450 
	C1442.646118,331.240540 1442.318115,332.007568 1441.990112,332.774597 
	C1441.242798,332.875336 1440.495483,332.976074 1439.210327,332.723022 
	C1434.884033,328.752228 1434.985962,328.247223 1440.082031,326.659882 
	C1437.666260,324.148438 1435.334473,321.724121 1433.430420,319.194580 
	C1461.912354,315.648712 1489.968262,312.222900 1518.020142,308.763428 
	C1549.866455,304.835999 1581.714600,300.922577 1613.550781,296.914032 
	C1628.049927,295.088440 1642.522339,293.049133 1657.006836,291.106750 
z"/>
<path fill="#14C464" opacity="1.000000" stroke="none" 
	d="
M1012.020569,1224.739746 
	C1008.543884,1224.739624 1005.563232,1224.739624 1002.457153,1224.739624 
	C1002.232178,1225.601440 1001.931458,1226.216431 1001.931274,1226.831421 
	C1001.925842,1248.308960 1001.792480,1269.788208 1002.025574,1291.263428 
	C1002.167664,1304.356567 1007.425171,1309.884888 1020.458191,1311.625488 
	C1022.435669,1311.889526 1024.448730,1311.876099 1026.436646,1312.076782 
	C1028.557739,1312.290894 1030.668457,1312.606689 1032.862549,1312.888306 
	C1032.862549,1317.026001 1032.862549,1320.799194 1032.862549,1324.346313 
	C1024.388306,1324.346313 1015.997375,1325.279785 1007.901062,1324.132690 
	C994.990906,1322.303833 987.372437,1314.602905 986.250427,1301.600342 
	C985.051697,1287.708496 985.490906,1273.669800 985.353210,1259.693726 
	C985.240417,1248.245483 985.330322,1236.795288 985.330322,1224.867188 
	C979.643677,1224.867188 973.891418,1224.867188 968.430298,1224.867188 
	C967.971252,1224.116333 967.672424,1223.848755 967.650879,1223.560425 
	C966.939209,1214.048096 966.940857,1214.035034 976.182861,1212.380493 
	C979.282471,1211.825684 982.397217,1211.355347 985.937256,1210.775635 
	C986.882324,1200.344849 987.825073,1189.940430 988.794800,1179.237671 
	C993.103271,1179.237671 997.176147,1179.237671 1001.814453,1179.237671 
	C1001.814453,1189.565186 1001.814453,1199.955566 1001.814453,1210.715820 
	C1012.977051,1210.715820 1023.588989,1210.715820 1034.563232,1210.715820 
	C1034.563232,1215.466797 1034.563232,1219.841919 1034.563232,1224.739868 
	C1027.089478,1224.739868 1019.803040,1224.739868 1012.020569,1224.739746 
z"/>
<path fill="#19CB68" opacity="1.000000" stroke="none" 
	d="
M2278.964844,1221.829834 
	C2278.962158,1219.049805 2278.962158,1216.729858 2278.962158,1213.956543 
	C2285.100586,1212.868164 2291.082275,1211.807617 2297.315674,1210.702393 
	C2298.271729,1200.140259 2299.211670,1189.754761 2300.170898,1179.156616 
	C2304.416504,1179.156616 2308.364014,1179.156616 2312.897949,1179.156616 
	C2312.897949,1189.458374 2312.897949,1199.836914 2312.897949,1210.769775 
	C2324.177002,1210.769775 2334.892334,1210.769775 2345.860352,1210.769775 
	C2345.860352,1215.584839 2345.860352,1219.843506 2345.860352,1224.703369 
	C2335.054199,1224.703369 2324.330566,1224.703369 2313.102539,1224.703369 
	C2313.102539,1226.915771 2313.102539,1228.534546 2313.102539,1230.153320 
	C2313.102539,1248.801636 2313.101074,1267.449829 2313.105469,1286.098145 
	C2313.105713,1287.429810 2313.117432,1288.762817 2313.175049,1290.092896 
	C2313.825195,1305.044556 2319.154053,1310.592285 2334.095215,1311.882690 
	C2337.381592,1312.166504 2340.668945,1312.438843 2344.231201,1312.739746 
	C2344.231201,1316.881958 2344.231201,1320.623047 2344.231201,1324.946411 
	C2334.113525,1324.785400 2324.018799,1326.390137 2314.181152,1323.018188 
	C2302.753906,1319.101685 2297.770752,1310.102539 2297.161621,1298.942261 
	C2296.437012,1285.672852 2296.905518,1272.337524 2296.882080,1259.030762 
	C2296.862061,1247.756836 2296.877930,1236.482910 2296.877930,1224.754883 
	C2291.742676,1224.754883 2286.947266,1224.905518 2282.174805,1224.642578 
	C2281.065918,1224.581421 2280.034668,1223.111694 2278.964844,1221.829834 
z"/>
<path fill="#18C967" opacity="1.000000" stroke="none" 
	d="
M2451.739502,1307.256104 
	C2455.477539,1308.984375 2458.843994,1310.846802 2462.450928,1311.796509 
	C2465.951904,1312.718384 2469.699707,1312.703491 2473.687012,1313.137817 
	C2473.687012,1317.078613 2473.687012,1320.979126 2473.687012,1325.718872 
	C2465.916992,1325.327271 2458.014648,1325.705811 2450.413330,1324.370972 
	C2437.760742,1322.148804 2430.765381,1312.840698 2430.075684,1297.821655 
	C2429.457520,1284.360718 2429.508057,1270.863647 2429.475342,1257.382202 
	C2429.402100,1227.080811 2429.460449,1196.779053 2429.465332,1166.477539 
	C2429.465576,1165.168945 2429.465332,1163.860352 2429.465332,1162.181274 
	C2435.208252,1162.181274 2440.579102,1162.181274 2446.430420,1162.181274 
	C2446.430420,1163.932983 2446.430420,1165.569458 2446.430420,1167.206055 
	C2446.433350,1206.009766 2446.350342,1244.813965 2446.510254,1283.617065 
	C2446.543457,1291.659424 2445.656250,1300.091064 2451.739502,1307.256104 
z"/>
<path fill="#14C464" opacity="1.000000" stroke="none" 
	d="
M328.839233,1219.000122 
	C328.854584,1199.856812 328.854584,1181.213379 328.854584,1162.189941 
	C334.462463,1162.189941 339.843475,1162.189941 345.826599,1162.189941 
	C345.826599,1167.847168 345.825989,1173.457031 345.826691,1179.066772 
	C345.831329,1214.703003 345.809845,1250.339111 345.878021,1285.975220 
	C345.885620,1289.953857 346.047424,1293.995850 346.755615,1297.896240 
	C348.383575,1306.862549 353.186646,1311.011963 362.304321,1311.976074 
	C365.763855,1312.341797 369.219208,1312.747070 372.965149,1313.166626 
	C372.965149,1317.086670 372.965149,1320.846069 372.965149,1325.204468 
	C363.252960,1325.247314 353.406708,1326.772949 344.122864,1322.702148 
	C332.092682,1317.427124 329.405426,1306.435791 329.127075,1294.965820 
	C328.617950,1273.985596 328.891510,1252.986450 328.840607,1231.995117 
	C328.830505,1227.830078 328.829224,1223.665039 328.839233,1219.000122 
z"/>
<path fill="#2AD577" opacity="1.000000" stroke="none" 
	d="
M1433.002563,319.299805 
	C1435.334473,321.724121 1437.666260,324.148438 1440.082031,326.659882 
	C1434.985962,328.247223 1434.884033,328.752228 1438.834229,332.679443 
	C1426.316895,334.662903 1413.642212,336.369476 1400.957764,338.000336 
	C1387.802856,339.691711 1374.638428,341.309845 1361.425415,342.966644 
	C1357.454590,377.273560 1345.402100,407.786041 1323.867920,434.746490 
	C1317.636719,434.829376 1313.327881,431.423981 1313.011230,425.824463 
	C1333.424194,399.147217 1344.960083,369.714935 1347.764771,336.893250 
	C1348.191406,331.900940 1350.462891,329.368958 1355.376343,328.776215 
	C1381.256226,325.653992 1407.127930,322.465363 1433.002563,319.299805 
z"/>
<path fill="#2AD577" opacity="1.000000" stroke="none" 
	d="
M1143.612915,153.113525 
	C1143.052856,155.569885 1143.157471,157.313095 1146.044434,158.632858 
	C1149.764648,160.333527 1153.198364,162.661285 1156.603760,165.237442 
	C1109.337646,174.981415 1072.839600,199.823608 1047.289551,240.457642 
	C1042.583130,247.942627 1038.996460,256.131714 1034.893066,263.995789 
	C1028.335083,263.979797 1025.495850,262.147461 1022.994019,256.076691 
	C1030.297119,236.765106 1041.516724,220.178680 1055.278687,205.295364 
	C1079.402588,179.205750 1108.769531,161.839645 1143.612915,153.113525 
z"/>
<path fill="#1FD16F" opacity="1.000000" stroke="none" 
	d="
M2014.248047,1264.999878 
	C2014.234497,1246.869751 2014.234497,1229.239624 2014.234497,1211.233765 
	C2019.995850,1211.233765 2025.354858,1211.233765 2030.962158,1211.233765 
	C2030.962158,1249.113770 2030.962158,1286.835815 2030.962158,1324.819458 
	C2025.486084,1324.819458 2020.220337,1324.819458 2014.261597,1324.819458 
	C2014.261597,1305.024658 2014.261597,1285.262207 2014.248047,1264.999878 
z"/>
<path fill="#24C56C" opacity="1.000000" stroke="none" 
	d="
M1422.907227,93.907013 
	C1431.573486,85.137611 1439.942139,76.570282 1448.446167,68.139633 
	C1450.172974,66.427727 1452.315674,64.255157 1454.437744,64.047836 
	C1457.012329,63.796303 1460.611572,64.654083 1462.194824,66.432205 
	C1463.605957,68.016930 1463.264160,71.560013 1462.931152,74.140144 
	C1462.752808,75.521889 1461.049194,76.782684 1459.885132,77.949707 
	C1444.733887,93.140678 1429.557617,108.306664 1414.380859,123.472054 
	C1413.558960,124.293289 1412.764282,125.186775 1411.806763,125.819168 
	C1408.290894,128.140808 1404.758423,127.976997 1401.862549,124.935364 
	C1398.882812,121.805717 1399.012329,118.268875 1402.022583,115.155991 
	C1408.843994,108.101532 1415.772461,101.150406 1422.907227,93.907013 
z"/>
<path fill="#27CB71" opacity="1.000000" stroke="none" 
	d="
M1298.914185,115.304840 
	C1302.157349,119.284630 1301.523315,122.791573 1298.127686,125.650009 
	C1294.568481,128.645966 1291.098999,127.695663 1287.956299,124.586578 
	C1272.474731,109.270203 1256.962524,93.984673 1241.479004,78.670212 
	C1236.197998,73.446945 1235.431519,69.018021 1239.104370,65.463806 
	C1242.807983,61.879814 1246.933350,62.690845 1252.393311,68.204071 
	C1267.717407,83.677551 1283.013428,99.179070 1298.320679,114.669243 
	C1298.437500,114.787529 1298.558105,114.901993 1298.914185,115.304840 
z"/>
<path fill="#24C56C" opacity="1.000000" stroke="none" 
	d="
M1344.625244,55.881699 
	C1347.636597,52.919258 1351.221558,52.158005 1353.928711,54.456051 
	C1356.001709,56.215843 1357.732056,59.634151 1357.768799,62.339863 
	C1358.069336,84.466301 1357.958740,106.598686 1357.920044,128.729172 
	C1357.910034,134.435928 1354.918945,137.770950 1350.154175,137.663879 
	C1345.588257,137.561264 1342.889893,134.405701 1342.878296,128.797318 
	C1342.831787,106.481102 1342.818237,84.164581 1342.917603,61.848732 
	C1342.926025,59.958447 1343.860107,58.072289 1344.625244,55.881699 
z"/>
<path fill="#10A452" opacity="1.000000" stroke="none" 
	d="
M1374.935425,1235.115845 
	C1374.962402,1228.324463 1374.989380,1221.532959 1375.034668,1214.308838 
	C1378.350342,1216.338257 1381.647583,1218.800293 1384.982910,1222.051270 
	C1385.057251,1237.235107 1385.093506,1251.629883 1385.129761,1266.024780 
	C1382.017212,1268.063721 1378.904663,1270.102661 1375.423096,1272.148193 
	C1375.015869,1267.198120 1374.977539,1262.241577 1374.943359,1256.575195 
	C1374.943481,1248.948975 1374.939453,1242.032471 1374.935425,1235.115845 
z"/>
<path fill="#1CCF6C" opacity="1.000000" stroke="none" 
	d="
M2019.200439,1166.928223 
	C2034.100220,1167.129639 2032.026123,1164.915527 2032.064087,1179.275391 
	C2032.097412,1191.902588 2033.762817,1190.195557 2020.909180,1190.299316 
	C2013.680298,1190.357544 2013.594971,1190.213501 2013.625244,1183.160767 
	C2013.640869,1179.504883 2013.770874,1175.842651 2013.600098,1172.194824 
	C2013.424805,1168.455933 2014.706055,1166.434204 2019.200439,1166.928223 
z"/>
<path fill="#10A452" opacity="1.000000" stroke="none" 
	d="
M2630.334473,1268.941406 
	C2629.998291,1254.293213 2629.981934,1239.590454 2630.016846,1224.887817 
	C2630.020996,1223.097290 2630.300293,1221.307129 2630.767822,1219.232910 
	C2643.417725,1231.793091 2643.198975,1258.222290 2630.334473,1268.941406 
z"/>
<path fill="#08361C" opacity="1.000000" stroke="none" 
	d="
M1385.447510,1265.911621 
	C1385.093506,1251.629883 1385.057251,1237.235107 1385.092651,1222.372192 
	C1393.408569,1233.678833 1393.702393,1255.145752 1385.447510,1265.911621 
z"/>
<path fill="#10A452" opacity="1.000000" stroke="none" 
	d="
M1375.441772,1324.914551 
	C1375.271240,1321.365601 1375.525513,1317.882202 1375.810181,1313.982788 
	C1378.510132,1313.982788 1381.242554,1313.982788 1384.455811,1314.419922 
	C1384.966919,1317.852539 1384.997192,1320.848145 1385.027344,1323.843750 
	C1381.973755,1324.222534 1378.920166,1324.601318 1375.441772,1324.914551 
z"/>
<path fill="#7BD8A6" opacity="1.000000" stroke="none" 
	d="
M1680.733887,277.633575 
	C1680.381836,273.992065 1680.023804,269.899170 1680.018799,265.805817 
	C1680.002686,252.752457 1680.117432,239.698959 1680.380859,226.284058 
	C1680.683105,243.009079 1680.786255,260.095520 1680.733887,277.633575 
z"/>
<path fill="#08361C" opacity="1.000000" stroke="none" 
	d="
M1385.431641,1323.890015 
	C1384.997192,1320.848145 1384.966919,1317.852539 1384.886963,1314.405518 
	C1384.837158,1313.953979 1384.950684,1313.568970 1384.969971,1313.369385 
	C1386.271362,1313.856812 1388.735596,1314.837769 1388.649414,1315.184204 
	C1387.912476,1318.145752 1391.577515,1322.668091 1385.431641,1323.890015 
z"/>
<path fill="#7BD8A6" opacity="1.000000" stroke="none" 
	d="
M1680.733276,222.657944 
	C1680.452759,220.908600 1680.327393,218.731522 1680.390625,216.238037 
	C1680.682251,218.024475 1680.785278,220.127350 1680.733276,222.657944 
z"/>
<path fill="#2AD577" opacity="1.000000" stroke="none" 
	d="
M1442.260986,332.820526 
	C1442.318115,332.007568 1442.646118,331.240540 1442.974121,330.473450 
	C1443.322632,330.913971 1443.671021,331.354462 1444.059570,332.139954 
	C1443.577026,332.612091 1443.054443,332.739288 1442.260986,332.820526 
z"/>
<path fill="#7BD8A6" opacity="1.000000" stroke="none" 
	d="
M1680.732666,212.675323 
	C1680.456055,211.554596 1680.334839,210.021515 1680.395874,208.203857 
	C1680.681519,209.367157 1680.784912,210.815063 1680.732666,212.675323 
z"/>
<path fill="#2AD577" opacity="1.000000" stroke="none" 
	d="
M1152.655273,151.180084 
	C1152.077026,151.620026 1151.181030,152.021942 1150.132812,152.184998 
	C1150.766235,151.678116 1151.551880,151.410095 1152.655273,151.180084 
z"/>
<path fill="#7BD8A6" opacity="1.000000" stroke="none" 
	d="
M1680.687988,204.808563 
	C1680.479004,204.789490 1680.386353,204.461716 1680.432617,204.008240 
	C1680.649048,204.088318 1680.726685,204.294098 1680.687988,204.808563 
z"/>
<path fill="#7BD8A6" opacity="1.000000" stroke="none" 
	d="
M1680.687988,200.808533 
	C1680.478882,200.789520 1680.386108,200.461792 1680.432373,200.008316 
	C1680.648926,200.088318 1680.726562,200.294067 1680.687988,200.808533 
z"/>
<path fill="#7BD8A6" opacity="1.000000" stroke="none" 
	d="
M1680.687988,194.808563 
	C1680.479004,194.789566 1680.386353,194.461884 1680.432617,194.008423 
	C1680.649048,194.088379 1680.726685,194.294128 1680.687988,194.808563 
z"/>
<path fill="#7BD8A6" opacity="1.000000" stroke="none" 
	d="
M1680.687988,186.808502 
	C1680.479370,186.789566 1680.386963,186.462006 1680.432983,186.008545 
	C1680.649170,186.088409 1680.726807,186.294128 1680.687988,186.808502 
z"/>
<path fill="#7BD8A6" opacity="1.000000" stroke="none" 
	d="
M1680.049805,281.797607 
	C1679.727295,281.827698 1679.501099,281.631378 1679.275024,281.435059 
	C1679.388184,281.318512 1679.501343,281.201965 1679.859375,281.083252 
	C1680.104248,281.081055 1680.146240,281.571259 1680.049805,281.797607 
z"/>
<path fill="#FEFFFF" opacity="1.000000" stroke="none" 
	d="
M515.000000,705.035522 
	C536.344177,704.817383 557.134399,705.282410 577.395691,710.988586 
	C594.309998,715.752014 609.227600,723.537537 619.023438,738.978333 
	C632.186462,759.726440 633.347473,803.127319 604.276428,822.610168 
	C591.123718,831.424866 576.386597,835.955200 560.903748,837.849731 
	C549.862244,839.200806 538.683838,839.977051 527.561768,840.031433 
	C480.257507,840.263000 432.951447,840.129761 385.646057,840.129761 
	C383.685822,840.129761 381.725616,840.129761 379.479980,840.129761 
	C379.479980,794.945190 379.479980,750.243103 379.479980,705.035583 
	C424.650360,705.035583 469.575195,705.035583 515.000000,705.035522 
z"/>
<path fill="#FEFFFF" opacity="1.000000" stroke="none" 
	d="
M504.996124,484.000732 
	C525.922546,484.109589 546.110535,485.888062 565.123779,494.086121 
	C602.534424,510.216736 613.109375,560.414246 585.095154,589.089600 
	C572.956360,601.514954 557.314941,607.303467 540.607361,609.827515 
	C528.636475,611.635925 516.446289,612.684875 504.342407,612.793945 
	C464.523621,613.152832 424.699615,612.929321 384.877594,612.929565 
	C383.228668,612.929565 381.579742,612.929504 379.561035,612.929504 
	C379.561035,569.922058 379.561035,527.220093 379.561035,484.000732 
	C421.285461,484.000732 462.891296,484.000732 504.996124,484.000732 
z"/>
<path fill="#FFFFFF" opacity="1.000000" stroke="none" 
	d="
M1173.265137,740.581055 
	C1168.117065,717.945312 1168.244385,695.821228 1176.280029,674.343445 
	C1186.896240,645.968933 1207.308716,626.801147 1235.544678,616.840576 
	C1270.808472,604.400757 1306.080200,605.141907 1339.493164,622.995361 
	C1372.250000,640.498230 1388.997681,668.889038 1390.841797,705.867737 
	C1392.133301,731.768250 1386.598022,755.890381 1369.778198,776.399109 
	C1351.701904,798.439819 1328.064331,810.544373 1299.961182,813.974487 
	C1274.569946,817.073608 1249.681152,815.192810 1226.373291,803.746765 
	C1199.650635,790.623779 1181.277588,770.145142 1173.265137,740.581055 
z"/>
<path fill="#FEFFFF" opacity="1.000000" stroke="none" 
	d="
M200.723297,1309.949585 
	C185.991745,1309.959961 171.729355,1309.959961 157.003525,1309.959961 
	C157.003525,1308.222900 157.003525,1306.938110 157.003525,1305.653198 
	C157.003525,1287.557373 157.003525,1269.461426 157.003525,1251.158081 
	C172.830872,1251.158081 188.269318,1250.506714 203.623230,1251.366089 
	C215.699188,1252.042114 224.674332,1261.062256 226.195404,1273.076294 
	C226.972107,1279.210938 226.589066,1285.757080 225.332748,1291.828125 
	C222.901291,1303.578003 215.413742,1308.755859 200.723297,1309.949585 
z"/>
<path fill="#FEFFFF" opacity="1.000000" stroke="none" 
	d="
M157.003510,1192.041626 
	C157.003510,1188.905762 157.003510,1186.264282 157.003510,1183.327759 
	C158.331589,1183.191650 159.430664,1182.982544 160.530060,1182.980957 
	C173.175186,1182.961548 185.822800,1182.818848 198.464844,1183.019287 
	C212.305511,1183.238647 220.803162,1191.270752 220.886963,1205.027710 
	C220.926468,1211.514282 220.068008,1218.397095 217.795914,1224.412720 
	C214.621094,1232.818604 207.640610,1237.254028 198.264801,1237.220093 
	C184.677826,1237.170776 171.090530,1237.207397 157.003510,1237.207397 
	C157.003510,1222.063232 157.003510,1207.299561 157.003510,1192.041626 
z"/>
<path fill="#FEFFFF" opacity="1.000000" stroke="none" 
	d="
M1034.921143,264.372498 
	C1038.996460,256.131714 1042.583130,247.942627 1047.289551,240.457642 
	C1072.839600,199.823608 1109.337646,174.981415 1156.767090,165.560715 
	C1182.090942,161.569107 1207.276611,163.457840 1232.389404,163.054276 
	C1241.547485,162.907089 1250.709961,163.028870 1259.870361,163.036057 
	C1263.867432,163.039200 1268.712158,161.691879 1271.609863,163.483841 
	C1274.218994,165.097336 1274.501587,170.254471 1276.144165,173.688889 
	C1282.032349,185.999802 1291.552246,193.152786 1305.513306,193.205383 
	C1335.479858,193.318283 1365.447144,193.311859 1395.413696,193.218491 
	C1410.453979,193.171631 1421.910889,183.797623 1425.781738,168.808334 
	C1426.059204,167.733658 1426.640015,166.737335 1427.061646,165.359406 
	C1428.564697,164.351990 1430.084961,163.112259 1431.606934,163.110413 
	C1505.431641,163.020355 1579.256470,163.022247 1653.081299,163.062378 
	C1661.287842,163.066833 1665.346924,167.162292 1665.359741,175.412521 
	C1665.412109,209.242264 1665.343140,243.072235 1665.432251,276.901825 
	C1665.446167,282.200714 1663.294800,286.173645 1658.891602,289.742615 
	C1658.162109,290.333984 1657.901367,290.601593 1657.640747,290.869202 
	C1657.640747,290.869232 1657.281738,290.875793 1657.144287,290.991272 
	C1642.522339,293.049133 1628.049927,295.088440 1613.550781,296.914032 
	C1581.714600,300.922577 1549.866455,304.835999 1518.020142,308.763428 
	C1489.968262,312.222900 1461.912354,315.648712 1433.430420,319.194580 
	C1407.127930,322.465363 1381.256226,325.653992 1355.376343,328.776215 
	C1350.462891,329.368958 1348.191406,331.900940 1347.764771,336.893250 
	C1344.960083,369.714935 1333.424194,399.147217 1312.974731,425.407654 
	C1301.163818,439.242645 1288.270386,451.391693 1273.097412,461.041016 
	C1211.364746,500.300354 1129.863159,493.489044 1076.098877,443.866882 
	C1036.998291,407.778900 1020.269897,362.568390 1024.198608,309.695892 
	C1025.349854,294.200684 1029.296143,279.237030 1034.921143,264.372498 
M1089.416260,276.370300 
	C1078.701782,297.745514 1075.090698,320.312378 1079.553345,343.755676 
	C1090.852661,403.114288 1146.409546,441.041901 1205.863281,430.035248 
	C1232.580811,425.089020 1254.473755,411.800842 1271.467041,389.717987 
	C1271.630493,389.386780 1271.793945,389.055603 1272.264404,388.632996 
	C1272.459717,388.500702 1272.549194,388.316864 1273.046143,387.575653 
	C1289.555908,364.842102 1296.175903,339.345001 1292.695190,311.643341 
	C1284.119995,243.393784 1215.124146,200.808716 1150.120117,223.538086 
	C1123.232056,232.939758 1102.910889,250.310867 1089.416260,276.370300 
z"/>
<path fill="#27CB71" opacity="1.000000" stroke="none" 
	d="
M1657.924561,290.825500 
	C1657.901367,290.601593 1658.162109,290.333984 1658.709229,290.024841 
	C1658.733154,290.249420 1658.470703,290.515594 1657.924561,290.825500 
z"/>
<path fill="#FDFFFE" opacity="1.000000" stroke="none" 
	d="
M520.226685,1306.264648 
	C516.232605,1308.225220 512.588257,1311.081909 508.742767,1311.384766 
	C500.528992,1312.031738 492.163239,1311.857544 483.949677,1311.075439 
	C476.328064,1310.349731 471.309296,1305.342896 468.880676,1298.189209 
	C467.395081,1293.813354 466.110779,1289.247803 465.633087,1284.673706 
	C464.177338,1270.734985 463.813995,1256.756836 467.015686,1242.964966 
	C469.898956,1230.544800 475.900024,1225.105103 488.642975,1223.916260 
	C494.555817,1223.364502 500.585876,1223.553711 506.527832,1223.942139 
	C517.273987,1224.644653 524.293762,1230.600952 526.775513,1240.893677 
	C531.090393,1258.788818 531.111572,1276.876709 526.625122,1294.751099 
	C525.618225,1298.762695 522.585449,1302.265869 520.226685,1306.264648 
z"/>
<path fill="#FBFEFD" opacity="1.000000" stroke="none" 
	d="
M2609.297607,1223.396973 
	C2622.736816,1227.541138 2629.816406,1245.770752 2622.253418,1257.220825 
	C2620.415039,1260.004395 2616.288086,1262.379272 2612.928955,1262.831665 
	C2605.399902,1263.845947 2597.693604,1263.628296 2590.057129,1263.736084 
	C2581.940186,1263.850708 2573.820557,1263.761597 2565.047607,1263.761597 
	C2565.263916,1253.261353 2565.279053,1243.205566 2569.786133,1233.815918 
	C2572.949707,1227.225830 2578.677002,1223.704102 2585.608887,1223.183838 
	C2593.327393,1222.604126 2601.133789,1223.194824 2609.297607,1223.396973 
z"/>
<path fill="#FBFEFD" opacity="1.000000" stroke="none" 
	d="
M1374.700195,1234.861328 
	C1374.939453,1242.032471 1374.943481,1248.948975 1374.875000,1256.261230 
	C1371.284546,1261.891357 1365.917236,1263.560181 1360.099487,1263.636719 
	C1345.959106,1263.822632 1331.814331,1263.697144 1316.910034,1263.697144 
	C1316.887207,1252.197266 1316.403564,1240.796997 1323.265747,1231.059570 
	C1325.470459,1227.930786 1329.545166,1225.433838 1333.277344,1224.202148 
	C1342.794556,1221.061279 1352.606934,1221.370117 1362.332764,1223.872314 
	C1368.229858,1225.389526 1372.460083,1228.723633 1374.700195,1234.861328 
z"/>
<path fill="#2AD577" opacity="1.000000" stroke="none" 
	d="
M1271.957397,388.724396 
	C1271.793945,389.055603 1271.630493,389.386780 1270.845703,389.813232 
	C1268.963867,389.584320 1267.683472,389.322052 1266.446655,388.924133 
	C1262.913208,387.787323 1259.864624,386.359985 1261.846680,381.640411 
	C1262.195190,380.810455 1261.878052,379.700958 1261.947876,378.392822 
	C1277.028320,356.094116 1282.161377,332.086334 1276.951294,305.929382 
	C1267.714600,259.556824 1220.943115,226.375153 1174.247314,233.234283 
	C1139.420776,238.349945 1114.792603,257.222748 1099.489258,288.994568 
	C1095.087402,289.833618 1092.161865,287.751648 1090.495239,284.694580 
	C1089.604858,283.061310 1090.635376,280.420654 1090.648071,278.233734 
	C1090.652466,277.468201 1090.204956,276.700073 1089.963745,275.933167 
	C1102.910889,250.310867 1123.232056,232.939758 1150.120117,223.538086 
	C1215.124146,200.808716 1284.119995,243.393784 1292.695190,311.643341 
	C1296.175903,339.345001 1289.555908,364.842102 1272.670776,387.912445 
	C1272.152588,388.386169 1272.039917,388.544556 1271.957397,388.724396 
z"/>
<path fill="#2EDE7D" opacity="1.000000" stroke="none" 
	d="
M1261.868164,378.720551 
	C1261.878052,379.700958 1262.195190,380.810455 1261.846680,381.640411 
	C1259.864624,386.359985 1262.913208,387.787323 1266.446655,388.924133 
	C1267.683472,389.322052 1268.963867,389.584320 1270.599854,389.951355 
	C1254.473755,411.800842 1232.580811,425.089020 1205.863281,430.035248 
	C1146.409546,441.041901 1090.852661,403.114288 1079.553345,343.755676 
	C1075.090698,320.312378 1078.701782,297.745514 1089.689941,276.151733 
	C1090.204956,276.700073 1090.652466,277.468201 1090.648071,278.233734 
	C1090.635376,280.420654 1089.604858,283.061310 1090.495239,284.694580 
	C1092.161865,287.751648 1095.087402,289.833618 1099.486694,289.365479 
	C1093.155273,306.148712 1091.313965,323.162048 1094.220459,340.597626 
	C1104.065308,399.651794 1168.457275,433.945404 1223.367065,409.566040 
	C1238.953491,402.645844 1251.366455,391.912567 1261.868164,378.720551 
z"/>
<path fill="#2EDE7D" opacity="1.000000" stroke="none" 
	d="
M1272.110840,388.678711 
	C1272.039917,388.544556 1272.152588,388.386169 1272.414185,388.165405 
	C1272.549194,388.316864 1272.459717,388.500702 1272.110840,388.678711 
z"/>
<path fill="#FEFFFF" opacity="1.000000" stroke="none" 
	d="
M1261.947876,378.392822 
	C1251.366455,391.912567 1238.953491,402.645844 1223.367065,409.566040 
	C1168.457275,433.945404 1104.065308,399.651794 1094.220459,340.597626 
	C1091.313965,323.162048 1093.155273,306.148712 1099.892578,289.363464 
	C1114.792603,257.222748 1139.420776,238.349945 1174.247314,233.234283 
	C1220.943115,226.375153 1267.714600,259.556824 1276.951294,305.929382 
	C1282.161377,332.086334 1277.028320,356.094116 1261.947876,378.392822 
z"/>
</svg>