<?xml version="1.0" encoding="utf-8"?>
<svg class="thumb" height="1000" viewBox="0,0,600,600" width="1000" xmlns="http://www.w3.org/2000/svg" xmlns:inkscape="http://www.inkscape.org/namespaces/inkscape" xmlns:ns1="http://www.inkscape.org/namespaces/inkscape" xmlns:sketch="http://www.bohemiancoding.com/sketch/ns" xmlns:sodipodi="http://sodipodi.sourceforge.net/DTD/sodipodi-0.dtd" xmlns:xlink="http://www.w3.org/1999/xlink">
<defs/>
<g transform="matrix(3.3748,0,0,3.3748,-126.5894,151.8436)">
<g transform="matrix(0.5,0,0,0.5,49.525,14.25)">
<svg height="181" style="overflow: visible;" width="305.90000000000003">
<defs>
<linearGradient id="linearGradientSjxy616qmg" x1="0" x2="1" y1="0.5" y2="0.5">
<stop offset="0%" stop-color="#20bd67"/>
<stop offset="100%" stop-color="#20bd67"/>
</linearGradient>
</defs>
<g transform="matrix(1,0,0,1,0,90.75)">
<path d="M 59.70000000000001-36.4Q 65.70000000000002-34.5  69.1-30.05Q 72.5-25.6  72.5-19.1L 72.5-19.1Q 72.5-9.9  65.35-4.95Q 58.20000000000001 0  44.50000000000001 0L 44.50000000000001 0L 8.300000000000008 0L 8.300000000000008-70L 42.50000000000001-70Q 55.300000000000004-70  62.150000000000006-65.1Q 69-60.2  69-51.8L 69-51.8Q 69-46.7  66.55000000000001-42.7Q 64.1-38.7  59.70000000000001-36.4L 59.70000000000001-36.4ZM 40.50000000000001-57.8L 24.400000000000006-57.8L 24.400000000000006-41.3L 40.50000000000001-41.3Q 46.50000000000001-41.3  49.60000000000001-43.4Q 52.70000000000001-45.5  52.70000000000001-49.6L 52.70000000000001-49.6Q 52.70000000000001-53.7  49.60000000000001-55.75Q 46.50000000000001-57.8  40.50000000000001-57.8L 40.50000000000001-57.8ZM 43.300000000000004-12.2Q 49.70000000000001-12.2  52.95000000000001-14.3Q 56.20000000000001-16.4  56.20000000000001-20.8L 56.20000000000001-20.8Q 56.20000000000001-29.5  43.300000000000004-29.5L 43.300000000000004-29.5L 24.400000000000006-29.5L 24.400000000000006-12.2L 43.300000000000004-12.2ZM 83.7 0L 83.7-53.8L 99.3-53.8L 99.3 0L 83.7 0ZM 91.5-61.3Q 87.2-61.3  84.5-63.8Q 81.8-66.3  81.8-70L 81.8-70Q 81.8-73.7  84.5-76.2Q 87.2-78.7  91.5-78.7L 91.5-78.7Q 95.8-78.7  98.5-76.3Q 101.2-73.9  101.2-70.3L 101.2-70.3Q 101.2-66.4  98.5-63.85Q 95.8-61.3  91.5-61.3L 91.5-61.3ZM 154.5-53.8L 169.3-53.8L 169.3-9Q 169.3 5.8  161.6 13Q 153.89999999999998 20.2  139.1 20.2L 139.1 20.2Q 131.29999999999998 20.2  124.3 18.3Q 117.3 16.4  112.69999999999999 12.8L 112.69999999999999 12.8L 118.89999999999999 1.6Q 122.3 4.4  127.5 6.05Q 132.7 7.7  137.9 7.7L 137.9 7.7Q 146 7.7  149.85 4.05Q 153.7 0.4  153.7-7L 153.7-7L 153.7-9.3Q 147.6-2.6  136.7-2.6L 136.7-2.6Q 129.29999999999998-2.6  123.14999999999999-5.85Q 117-9.1  113.39999999999999-15Q 109.8-20.9  109.8-28.6L 109.8-28.6Q 109.8-36.3  113.39999999999999-42.2Q 117-48.1  123.14999999999999-51.35Q 129.29999999999998-54.6  136.7-54.6L 136.7-54.6Q 148.39999999999998-54.6  154.5-46.9L 154.5-46.9L 154.5-53.8ZM 139.8-15.4Q 146-15.4  149.95-19.05Q 153.89999999999998-22.7  153.89999999999998-28.6L 153.89999999999998-28.6Q 153.89999999999998-34.5  149.95-38.15Q 146-41.8  139.8-41.8L 139.8-41.8Q 133.6-41.8  129.6-38.15Q 125.6-34.5  125.6-28.6L 125.6-28.6Q 125.6-22.7  129.6-19.05Q 133.6-15.4  139.8-15.4L 139.8-15.4ZM 216.5-54.6Q 226.5-54.6  232.64999999999998-48.6Q 238.8-42.6  238.8-30.8L 238.8-30.8L 238.8 0L 223.2 0L 223.2-28.4Q 223.2-34.8  220.39999999999998-37.95Q 217.6-41.1  212.3-41.1L 212.3-41.1Q 206.4-41.1  202.9-37.45Q 199.4-33.8  199.4-26.6L 199.4-26.6L 199.4 0L 183.79999999999998 0L 183.79999999999998-74.2L 199.4-74.2L 199.4-48.2Q 202.5-51.3  206.9-52.95Q 211.3-54.6  216.5-54.6L 216.5-54.6ZM 252.89999999999998 0L 252.89999999999998-53.8L 268.5-53.8L 268.5 0L 252.89999999999998 0ZM 260.7-61.3Q 256.4-61.3  253.7-63.8Q 251-66.3  251-70L 251-70Q 251-73.7  253.7-76.2Q 256.4-78.7  260.7-78.7L 260.7-78.7Q 265-78.7  267.7-76.3Q 270.4-73.9  270.4-70.3L 270.4-70.3Q 270.4-66.4  267.7-63.85Q 265-61.3  260.7-61.3L 260.7-61.3ZM 283 0L 283-74.2L 298.6-74.2L 298.6 0L 283 0Z" data-dx="0" data-dy="0" data-font="Montserrat" data-font-scale="contain" data-font-size="100" data-font-src="/Content/clientfonts/montserrat-bold.woff" data-href="" data-letterspacing="0" data-offset="0.5" data-side="left" data-text-anchor="middle" data-textpath="Bighil" data-x="0" data-xmlspace="preserve" data-y="0" fill="#00a650" stroke="#00a650" stroke-width="0.8" transform="translate(0,0)"/>
</g>
</svg>
</g>
<g transform="matrix(0.5976,0,0,0.5976,98.997,0.1686)">
<svg height="58" viewBox="9,21,82.00000000000001,58" width="82.00000000000001">
<defs>
<linearGradient id="linearGradientSjxy616qm8" x1="0.17" x2="0.83" y1="0.87" y2="0.13">
<stop offset="0%" stop-color="#2de37f"/>
<stop offset="100%" stop-color="#20bd67"/>
</linearGradient>
</defs>
<g>
<path d="M50.6,26c-0.42,0-0.779,0.36-0.779,0.78v7.44c0,1.08,1.619,1.08,1.619,0v-7.44   C51.439,26.36,51.08,26,50.6,26L50.6,26z M39.26,27.08c-0.72,0-1.08,0.9-0.54,1.38L44,33.68c0.72,0.78,1.86-0.36,1.08-1.08   l-5.22-5.28C39.68,27.2,39.5,27.08,39.26,27.08L39.26,27.08z M62,27.08c-0.24,0-0.42,0.12-0.601,0.24l-5.22,5.28   c-0.78,0.72,0.36,1.86,1.14,1.08l5.221-5.22C63.08,27.92,62.72,27.08,62,27.08L62,27.08z M33.02,36.14   C22.52,36.14,14,44.66,14,55.1C14,65.54,22.52,74,33.02,74c9.721,0,17.82-7.38,18.78-16.98l31.5-3.899c1.5-0.181,2.7-1.5,2.7-3.06   v-2.64v-6.24v-2.22c0-1.56-1.261-2.82-2.82-2.82h-24.9c-0.359,0-0.72,0.3-0.779,0.66L57.199,38c-0.119,0.72-1.02,1.38-1.739,1.38   h-1.681h-6.3H45.8c-0.72,0-1.56-0.66-1.74-1.38l-0.3-1.2c-0.06-0.36-0.359-0.66-0.78-0.66H33.02L33.02,36.14L33.02,36.14z    M33.02,37.76h9.36l0.12,0.6c0.36,1.5,1.74,2.64,3.3,2.64h1.68h6.3h1.681c1.56,0,2.939-1.14,3.3-2.64l0.18-0.6h24.24   c0.72,0,1.2,0.54,1.2,1.2v2.22v6.24v2.64c0,0.72-0.601,1.379-1.26,1.5L51.02,55.52c-0.359,0.061-0.659,0.36-0.659,0.721   C49.7,65.36,42.14,72.38,33.02,72.38c-9.659,0-17.399-7.74-17.399-17.28C15.62,45.5,23.36,37.76,33.02,37.76L33.02,37.76z    M33.02,43.58c-6.42,0-11.579,5.16-11.579,11.52c0,6.301,5.159,11.46,11.579,11.46c6.36,0,11.521-5.159,11.521-11.46   C44.54,48.74,39.38,43.58,33.02,43.58L33.02,43.58z M33.02,45.2c5.46,0,9.96,4.38,9.96,9.9c0,5.46-4.5,9.9-9.96,9.9   c-5.52,0-9.96-4.44-9.96-9.9C23.06,49.58,27.5,45.2,33.02,45.2L33.02,45.2z" fill="#00a650" stroke="#00a650" stroke-width="0.8" style=""/>
</g>
</svg>
</g>
<g transform="matrix(0.1371,0,0,0.1371,74.1349,70.9898)">
<svg height="192" style="overflow: visible;" width="760.5000000000001">
<defs>
<linearGradient id="linearGradientSjxy616qmj" x1="0" x2="1" y1="0.5" y2="0.5">
<stop offset="49.29%" stop-color="#12c462"/>
<stop offset="50%" stop-color="#000000"/>
<stop offset="50.95%" stop-color="#23de77"/>
<stop offset="99.53%" stop-color="#12c462"/>
<stop offset="100%" stop-color="#000000"/>
</linearGradient>
</defs>
<g transform="matrix(1,0,0,1,0,99)">
<path d="M-202.29999999999995 0L-202.29999999999995-73.6L-175.69999999999993-73.6Q-156.69999999999993-73.6 -156.69999999999993-54.7L-156.69999999999993-54.7Q-156.69999999999993-48.1 -159.64999999999995-43.8Q-162.59999999999994-39.5 -167.09999999999994-38.2L-167.09999999999994-38.2Q-162.09999999999994-37.1 -158.09999999999994-32.7Q-154.09999999999994-28.3 -154.09999999999994-20.4L-154.09999999999994-20.4Q-154.09999999999994-9.2 -159.29999999999995-4.6Q-164.49999999999994 0 -174.69999999999993 0L-174.69999999999993 0L-202.29999999999995 0ZM-194.29999999999995-41L-175.19999999999993-41Q-170.29999999999995-41 -167.29999999999995-44.65Q-164.29999999999995-48.3 -164.29999999999995-54.4L-164.29999999999995-54.4Q-164.29999999999995-66.4 -175.69999999999993-66.4L-175.69999999999993-66.4L-194.29999999999995-66.4L-194.29999999999995-41ZM-194.29999999999995-7.1L-174.89999999999995-7.1Q-168.49999999999994-7.1 -165.09999999999994-10.3Q-161.69999999999993-13.5 -161.69999999999993-21.7L-161.69999999999993-21.7Q-161.69999999999993-27.7 -165.44999999999993-31.2Q-169.19999999999993-34.7 -174.89999999999995-34.7L-174.89999999999995-34.7L-194.29999999999995-34.7L-194.29999999999995-7.1ZM-100.09999999999991 0.1Q-107.1999999999999 0.1 -110.6499999999999-3.8Q-114.09999999999991-7.7 -114.09999999999991-17.1L-114.09999999999991-17.1L-114.09999999999991-76.3L-106.1999999999999-76.3L-106.1999999999999-18.1Q-106.1999999999999-11.5 -104.3999999999999-9.1Q-102.59999999999991-6.7 -98.6999999999999-6.2L-98.6999999999999-6.2L-93.2999999999999-5.6L-93.2999999999999 0.1L-100.09999999999991 0.1ZM-35.4999999999999 0.6Q-43.699999999999896 0.6 -48.699999999999896-1.7Q-53.699999999999896-4 -56.1499999999999-9.95Q-58.599999999999895-15.9 -58.599999999999895-26.8L-58.599999999999895-26.8Q-58.599999999999895-37.8 -56.099999999999895-43.75Q-53.599999999999895-49.7 -48.699999999999896-51.9Q-43.7999999999999-54.1 -35.4999999999999-54.1L-35.4999999999999-54.1Q-27.299999999999898-54.1 -22.299999999999898-51.85Q-17.299999999999898-49.6 -14.799999999999898-43.65Q-12.299999999999898-37.7 -12.299999999999898-26.8L-12.299999999999898-26.8Q-12.299999999999898-15.9 -14.799999999999898-9.95Q-17.299999999999898-4 -22.2499999999999-1.7Q-27.199999999999896 0.6 -35.4999999999999 0.6L-35.4999999999999 0.6ZM-35.4999999999999-5.9Q-29.9999999999999-5.9 -26.849999999999895-7.35Q-23.699999999999896-8.8 -21.9999999999999-13.3Q-20.299999999999898-17.8 -20.299999999999898-26.8L-20.299999999999898-26.8Q-20.299999999999898-35.8 -21.949999999999896-40.25Q-23.599999999999895-44.7 -26.799999999999898-46.15Q-29.9999999999999-47.6 -35.4999999999999-47.6L-35.4999999999999-47.6Q-41.099999999999895-47.6 -44.2499999999999-46.15Q-47.3999999999999-44.7 -49.0499999999999-40.25Q-50.699999999999896-35.8 -50.699999999999896-26.8L-50.699999999999896-26.8Q-50.699999999999896-17.8 -49.0499999999999-13.3Q-47.3999999999999-8.8 -44.2499999999999-7.35Q-41.099999999999895-5.9 -35.4999999999999-5.9L-35.4999999999999-5.9ZM 37.5000000000001 0L 21.300000000000097-53.4L 29.400000000000098-53.4L 42.5000000000001-7.4L 56.0000000000001-53.4L 62.9000000000001-53.4L 76.40000000000009-7.4L 89.10000000000011-53.4L 97.2000000000001-53.4L 81.10000000000011 0L 72.40000000000009 0L 59.3000000000001-42.8L 46.100000000000094 0L 37.5000000000001 0ZM 207.40000000000015 0Q 199.50000000000014 0  195.80000000000013-4.05Q 192.10000000000014-8.1  192.30000000000013-17.3L 192.30000000000013-17.3L 192.60000000000014-46.9L 184.10000000000014-46.9L 184.10000000000014-52L 192.70000000000013-53.4L 194.00000000000014-68.3L 200.10000000000014-68.3L 200.10000000000014-53.4L 215.50000000000014-53.4L 215.50000000000014-46.9L 200.10000000000014-46.9L 200.10000000000014-17.3Q 200.10000000000014-11.2  202.40000000000015-8.95Q 204.70000000000013-6.7  208.20000000000013-6.4L 208.20000000000013-6.4L 214.70000000000013-5.8L 214.70000000000013 0L 207.40000000000015 0ZM 254.40000000000015 0L 254.40000000000015-76.3L 262.3000000000002-76.3L 262.3000000000002-47.5Q 266.40000000000015-50.4  271.5500000000002-52.35Q 276.70000000000016-54.3  281.90000000000015-54.3L 281.90000000000015-54.3Q 290.00000000000017-54.3  294.15000000000015-49.3Q 298.3000000000002-44.3  298.3000000000002-36.4L 298.3000000000002-36.4L 298.3000000000002 0L 290.40000000000015 0L 290.40000000000015-35.5Q 290.40000000000015-40.6  287.40000000000015-43.85Q 284.40000000000015-47.1  279.3000000000002-47.1L 279.3000000000002-47.1Q 274.50000000000017-47.1  270.75000000000017-45.85Q 267.00000000000017-44.6  262.3000000000002-41.9L 262.3000000000002-41.9L 262.3000000000002 0L 254.40000000000015 0ZM 361.6000000000001 0.6Q 353.00000000000006 0.6  348.25000000000006-1.9Q 343.50000000000006-4.4  341.4000000000001-10.3Q 339.30000000000007-16.2  339.30000000000007-26.8L 339.30000000000007-26.8Q 339.30000000000007-37.5  341.4500000000001-43.4Q 343.6000000000001-49.3  348.4000000000001-51.7Q 353.2000000000001-54.1  361.7000000000001-54.1L 361.7000000000001-54.1Q 369.00000000000006-54.1  373.4000000000001-52.5Q 377.80000000000007-50.9  379.9000000000001-47.05Q 382.00000000000006-43.2  382.00000000000006-36.4L 382.00000000000006-36.4Q 382.00000000000006-29.6  378.05000000000007-26.55Q 374.1000000000001-23.5  366.80000000000007-23.5L 366.80000000000007-23.5L 347.2000000000001-23.5Q 347.30000000000007-16.6  348.6000000000001-12.85Q 349.9000000000001-9.1  353.4000000000001-7.35Q 356.9000000000001-5.6  363.50000000000006-5.6L 363.50000000000006-5.6L 380.7000000000001-5.6L 380.7000000000001-0.8Q 375.30000000000007-0.1  371.1000000000001 0.25Q 366.9000000000001 0.6  361.6000000000001 0.6L 361.6000000000001 0.6ZM 347.1000000000001-28.7L 366.1000000000001-28.7Q 370.7000000000001-28.7  372.80000000000007-30.4Q 374.9000000000001-32.1  374.9000000000001-36.3L 374.9000000000001-36.3Q 374.9000000000001-43  371.9500000000001-45.55Q 369.00000000000006-48.1  361.7000000000001-48.1L 361.7000000000001-48.1Q 355.9000000000001-48.1  352.80000000000007-46.4Q 349.7000000000001-44.7  348.4000000000001-40.6Q 347.1000000000001-36.5  347.1000000000001-28.7L 347.1000000000001-28.7ZM 488.80000000000024 0L 472.6000000000002-53.4L 480.7000000000002-53.4L 493.80000000000024-7.4L 507.30000000000024-53.4L 514.2000000000003-53.4L 527.7000000000003-7.4L 540.4000000000002-53.4L 548.5000000000002-53.4L 532.4000000000002 0L 523.7000000000003 0L 510.6000000000002-42.8L 497.4000000000002 0L 488.80000000000024 0ZM 586.0000000000002 0L 586.0000000000002-76.3L 593.9000000000002-76.3L 593.9000000000002-47.5Q 598.0000000000002-50.4  603.1500000000002-52.35Q 608.3000000000002-54.3  613.5000000000002-54.3L 613.5000000000002-54.3Q 621.6000000000003-54.3  625.7500000000002-49.3Q 629.9000000000002-44.3  629.9000000000002-36.4L 629.9000000000002-36.4L 629.9000000000002 0L 622.0000000000002 0L 622.0000000000002-35.5Q 622.0000000000002-40.6  619.0000000000002-43.85Q 616.0000000000002-47.1  610.9000000000002-47.1L 610.9000000000002-47.1Q 606.1000000000003-47.1  602.3500000000003-45.85Q 598.6000000000003-44.6  593.9000000000002-41.9L 593.9000000000002-41.9L 593.9000000000002 0L 586.0000000000002 0ZM 674.0000000000001-62.9Q 673.3000000000002-62.9  672.8500000000001-63.35Q 672.4000000000002-63.8  672.4000000000002-64.5L 672.4000000000002-64.5L 672.4000000000002-72.3Q 672.4000000000002-73.9  674.0000000000001-73.9L 674.0000000000001-73.9L 679.6000000000001-73.9Q 681.1000000000001-73.9  681.1000000000001-72.3L 681.1000000000001-72.3L 681.1000000000001-64.5Q 681.1000000000001-62.9  679.6000000000001-62.9L 679.6000000000001-62.9L 674.0000000000001-62.9ZM 672.8000000000002 0L 672.8000000000002-53.4L 680.7000000000002-53.4L 680.7000000000002 0L 672.8000000000002 0ZM 742.3000000000001 0.6Q 737.8000000000001 0.6  731.0000000000001 0.2Q 724.2-0.2  721.7-0.8L 721.7-0.8L 721.7-5.6L 743.6-5.6Q 749.2-5.6  751.8000000000001-7.1Q 754.4000000000001-8.6  754.4000000000001-13.4L 754.4000000000001-13.4L 754.4000000000001-15.8Q 754.4000000000001-23.3  744.7-23.3L 744.7-23.3L 737.2-23.3Q 729.5000000000001-23.3  725.35-26.3Q 721.2-29.3  721.2-36.5L 721.2-36.5L 721.2-39.3Q 721.2-46.9  725.6500000000001-50.4Q 730.1-53.9  740.0000000000001-53.9L 740.0000000000001-53.9Q 744.3000000000001-53.9  750.1500000000001-53.45Q 756.0000000000001-53  759.3000000000001-52.4L 759.3000000000001-52.4L 759.3000000000001-47.6L 738.7-47.6Q 733.3000000000001-47.6  730.7-45.8Q 728.1-44  728.1-39.3L 728.1-39.3L 728.1-37.1Q 728.1-32.8  730.6500000000001-31.35Q 733.2-29.9  738.5000000000001-29.9L 738.5000000000001-29.9L 746.1-29.9Q 753.4000000000001-29.9  757.4000000000001-26.5Q 761.4000000000001-23.1  761.4000000000001-16.7L 761.4000000000001-16.7L 761.4000000000001-13Q 761.4000000000001-5.4  756.5000000000001-2.4Q 751.6 0.6  742.3000000000001 0.6L 742.3000000000001 0.6ZM 819.6000000000001 0Q 811.7000000000002 0  808.0000000000002-4.05Q 804.3000000000002-8.1  804.5000000000002-17.3L 804.5000000000002-17.3L 804.8000000000002-46.9L 796.3000000000002-46.9L 796.3000000000002-52L 804.9000000000002-53.4L 806.2000000000002-68.3L 812.3000000000002-68.3L 812.3000000000002-53.4L 827.7000000000002-53.4L 827.7000000000002-46.9L 812.3000000000002-46.9L 812.3000000000002-17.3Q 812.3000000000002-11.2  814.6000000000001-8.95Q 816.9000000000002-6.7  820.4000000000002-6.4L 820.4000000000002-6.4L 826.9000000000002-5.8L 826.9000000000002 0L 819.6000000000001 0ZM 880.6000000000001 0.1Q 873.5000000000001 0.1  870.0500000000001-3.8Q 866.6000000000001-7.7  866.6000000000001-17.1L 866.6000000000001-17.1L 866.6000000000001-76.3L 874.5000000000001-76.3L 874.5000000000001-18.1Q 874.5000000000001-11.5  876.3000000000001-9.1Q 878.1000000000001-6.7  882.0000000000001-6.2L 882.0000000000001-6.2L 887.4000000000001-5.6L 887.4000000000001 0.1L 880.6000000000001 0.1ZM 944.4000000000001 0.6Q 935.8000000000001 0.6  931.0500000000001-1.9Q 926.3000000000001-4.4  924.2-10.3Q 922.1000000000001-16.2  922.1000000000001-26.8L 922.1000000000001-26.8Q 922.1000000000001-37.5  924.2500000000001-43.4Q 926.4000000000001-49.3  931.2-51.7Q 936.0000000000001-54.1  944.5000000000001-54.1L 944.5000000000001-54.1Q 951.8000000000001-54.1  956.2-52.5Q 960.6000000000001-50.9  962.7-47.05Q 964.8000000000001-43.2  964.8000000000001-36.4L 964.8000000000001-36.4Q 964.8000000000001-29.6  960.8500000000001-26.55Q 956.9000000000001-23.5  949.6000000000001-23.5L 949.6000000000001-23.5L 930.0000000000001-23.5Q 930.1000000000001-16.6  931.4000000000001-12.85Q 932.7-9.1  936.2-7.35Q 939.7-5.6  946.3000000000001-5.6L 946.3000000000001-5.6L 963.5000000000001-5.6L 963.5000000000001-0.8Q 958.1000000000001-0.1  953.9000000000001 0.25Q 949.7 0.6  944.4000000000001 0.6L 944.4000000000001 0.6ZM 929.9000000000001-28.7L 948.9000000000001-28.7Q 953.5000000000001-28.7  955.6000000000001-30.4Q 957.7-32.1  957.7-36.3L 957.7-36.3Q 957.7-43  954.7500000000001-45.55Q 951.8000000000001-48.1  944.5000000000001-48.1L 944.5000000000001-48.1Q 938.7-48.1  935.6000000000001-46.4Q 932.5000000000001-44.7  931.2-40.6Q 929.9000000000001-36.5  929.9000000000001-28.7L 929.9000000000001-28.7Z" data-dx="0" data-dy="0" data-font="Exo" data-font-scale="contain" data-font-size="100" data-font-src="/Content/clientfonts/exo.woff" data-href="" data-letterspacing="28" data-offset="0.5" data-side="left" data-text-anchor="middle" data-textpath="Blow the whistle" data-x="0" data-xmlspace="preserve" data-y="0" fill="#00a650" stroke="#00a650" stroke-width="0.8" transform="translate(0,0)"/>
</g>
</svg>
</g>
</g>
</svg>